<svg xmlns="http://www.w3.org/2000/svg" viewBox="0 0 800.44 502.18"><defs><style>.cls-1{fill:none;}.cls-2{fill:#f49292;}.cls-3{fill:#f77272;}.cls-4{fill:#f26666;}.cls-4,.cls-7{opacity:0.57;}.cls-10,.cls-5,.cls-7,.cls-8{fill:#fd2d01;}.cls-5{opacity:0.71;}.cls-11,.cls-6,.cls-9{fill:#ffd7d7;}.cls-8{opacity:0.68;}.cls-9{opacity:0.74;}.cls-11{opacity:0.85;}</style></defs><g id="Calque_2" data-name="Calque 2"><g id="Calque_1-2" data-name="Calque 1"><rect class="cls-1" width="800.44" height="502.18"/><path class="cls-2" d="M731,26.18c32.17,82.28-68.17,309.37-272.57,389.29s-396.18,78-428.35-4.28S265.78,263.76,470.17,183.84,698.87-56.1,731,26.18Z"/><path class="cls-3" d="M789.58,98c50.62,58.6-109.54,260-288.69,330.09s-347.24,68.37-375.43-3.75S427.55,297.65,606.7,227.61,755.78,58.91,789.58,98Z"/><path class="cls-4" d="M599.56,4.07C682,4.07,748.82,73.89,748.82,160S682,316,599.56,316Z"/><circle class="cls-5" cx="688.84" cy="348.82" r="68.15"/><circle class="cls-6" cx="717.21" cy="377.19" r="39.78"/><circle class="cls-7" cx="406.87" cy="429.8" r="72.37"/><circle class="cls-6" cx="449.48" cy="429.55" r="42.25"/><path class="cls-8" d="M537.58,331.76a85.21,85.21,0,0,0,0,170.42Z"/><circle class="cls-9" cx="534.55" cy="452.01" r="47.96"/><circle class="cls-7" cx="623.31" cy="447.99" r="50.88"/><circle class="cls-6" cx="593.95" cy="442.06" r="29.7"/><path class="cls-10" d="M73.48,89.16a85.21,85.21,0,1,1,.94,170.41Z"/><circle class="cls-11" cx="91.79" cy="209.31" r="47.96"/><circle class="cls-6" cx="225.73" cy="157.58" r="42.25"/></g></g></svg>