<?xml version="1.0" encoding="utf-8"?>
<!-- Generator: Adobe Illustrator 26.0.1, SVG Export Plug-In . SVG Version: 6.00 Build 0)  -->
<svg version="1.1" id="a5c16198-98a1-478b-8909-43624583dcf2"
	 xmlns="http://www.w3.org/2000/svg" xmlns:xlink="http://www.w3.org/1999/xlink" x="0px" y="0px" viewBox="0 0 793 551.7"
	 style="enable-background:new 0 0 793 551.7;" xml:space="preserve">
<style type="text/css">
	.st0{fill:#2F2E41;}
	.st1{fill:#3F3D56;}
	.st2{fill:#FFFFFF;}
	.st3{fill:#FFD7D7;}
	.st4{fill:#FC2C09;}
	.st5{fill:#FD2D01;}
</style>
<path class="st0" d="M774.2,477H213.8c-10.4,0-18.8-8.4-18.8-18.8l0,0l0,0c203.2-23.6,402.5-23.6,598,0l0,0
	C793,468.5,784.6,477,774.2,477L774.2,477z"/>
<path class="st1" d="M793,459.3l-598-1.1l69.3-116.6l0.3-0.6V84c0-13.1,10.6-23.8,23.8-23.8c0,0,0,0,0,0h407.9
	c13.1,0,23.8,10.6,23.8,23.8c0,0,0,0,0,0v258.8L793,459.3z"/>
<path class="st2" d="M287.9,76.8c-4.3,0-7.7,3.5-7.7,7.7v234.3c0,4.3,3.5,7.7,7.7,7.7h412.3c4.3,0,7.7-3.5,7.7-7.7V84.6
	c0-4.3-3.5-7.7-7.7-7.7L287.9,76.8z"/>
<path class="st0" d="M289.6,357.6c-1.3,0-2.5,0.8-3,1.9l-21.4,46.4c-0.8,1.7,0,3.6,1.6,4.4c0.4,0.2,0.9,0.3,1.4,0.3h449.1
	c1.8,0,3.3-1.5,3.3-3.3c0-0.5-0.1-1-0.4-1.5l-23.2-46.4c-0.6-1.1-1.7-1.8-3-1.8L289.6,357.6z"/>
<circle class="st2" cx="492.3" cy="68" r="5"/>
<path class="st0" d="M448.2,419.5c-1.5,0-2.8,1-3.2,2.5l-5.4,19.9c-0.5,1.8,0.6,3.6,2.3,4.1c0.3,0.1,0.6,0.1,0.9,0.1h101.9
	c1.8,0,3.3-1.5,3.3-3.3c0-0.4-0.1-0.7-0.2-1.1l-6.9-19.9c-0.5-1.3-1.7-2.2-3.1-2.2L448.2,419.5z"/>
<polygon class="st0" points="720,337.1 720,341.6 264.3,341.6 264.6,341 264.6,337.1 "/>
<circle class="st3" cx="192" cy="314.5" r="77.4"/>
<path class="st2" d="M224,348.2h-64.1c-2.4,0-4.4-2-4.4-4.4v-38.7c0-2.4,2-4.4,4.4-4.4H224c2.4,0,4.4,2,4.4,4.4v38.7
	C228.4,346.2,226.4,348.2,224,348.2z M159.9,305.1v38.7H224l0-38.7L159.9,305.1z"/>
<path class="st2" d="M211.8,305.1h-39.8v-17.7c0-12.8,8.4-22.1,19.9-22.1s19.9,9.3,19.9,22.1V305.1z M176.5,300.7h31v-13.3
	c0-10.4-6.4-17.7-15.5-17.7s-15.5,7.3-15.5,17.7L176.5,300.7z"/>
<circle class="st2" cx="192" cy="323.4" r="4.4"/>
<path class="st3" d="M653.3,247.1H334.7c-3.3,0-5.9-2.6-5.9-5.9v-79c0-3.3,2.6-5.9,5.9-5.9h318.6c3.3,0,5.9,2.6,5.9,5.9v79
	C659.2,244.5,656.6,247.1,653.3,247.1z M334.7,158.7c-2,0-3.5,1.6-3.5,3.5v79c0,2,1.6,3.5,3.5,3.5h318.6c2,0,3.5-1.6,3.5-3.5v-79
	c0-2-1.6-3.5-3.5-3.5L334.7,158.7z"/>
<path class="st4" d="M439.7,182.7c-2.2,0-4,1.8-4,4c0,2.2,1.8,4,4,4c0,0,0,0,0,0h188.9c2.2,0,4-1.8,4-4s-1.8-4-4-4H439.7z"/>
<path class="st4" d="M439.7,206.7c-2.2,0-4,1.8-4,4s1.8,4,4,4H521c2.2,0,4-1.8,4-4s-1.8-4-4-4H439.7z"/>
<g id="_x39_269873b-566f-aa23-fe77-697bbc54db67" transform="matrix(0.17276311525438642,0,0,0.17276311525438642,35.75002377601375,124.08554457454373)">
	<g>
		<path class="st3" d="M1952.3,617.7c50.2,0,97.2-19.3,132.7-54.7c35.4-35.4,54.7-82.5,54.7-132.7c0-50.2-19.3-97.2-54.7-132.7
			c-35.4-35.4-82.5-54.7-132.7-54.7s-97.2,19.3-132.7,54.7c-35.4,35.4-54.7,82.5-54.7,132.7s19.3,97.2,54.7,132.7
			C1855.1,598.4,1902.2,617.7,1952.3,617.7z M1963.1,585.8c-3.6,0.4-7.2,0.4-10.8,0.4c-4.9,0-9.9-0.4-14.8-0.9
			c-16.1-25.1-28.2-52-35.4-80.2h79.3c2.7,6.7,7.6,13,13.4,17C1987.3,544.6,1976.5,565.7,1963.1,585.8z M2005.7,576.9
			c8.5-15.7,15.2-31.4,20.6-48c13-2.7,23.3-11.7,28.2-23.8h34.5C2071.1,537.9,2041.1,563.4,2005.7,576.9z M2107.9,430.3
			c0,14.8-2.2,29.1-5.8,43h-48.4c-2.7-5.8-7.2-11.2-12.5-15.2c0.9-9.9,1.3-19.7,1.3-29.6c0-13.9-0.9-27.8-2.7-41.2h61.8
			C2106.1,400.8,2107.9,415.5,2107.9,430.3z M2089,355.5h-54.7c-5.8-24.6-14.3-48-26-70.4C2042.4,298.1,2071.1,323.7,2089,355.5z
			 M2011.1,428.5c0,7.6-0.4,15.2-0.9,22.9c-12.5,2.7-22.9,10.8-27.8,22h-86.5c-1.8-13.4-3.1-27.3-3.1-40.8c0-8.5,0.4-17,1.3-25.5
			c11.7-2.2,21.1-9.9,26.9-19.7h87.4C2010.2,400.8,2011.1,414.6,2011.1,428.5z M1940.7,275.3c4-0.4,8.1-0.4,11.7-0.4
			c4.5,0,9,0,13.4,0.4c16.1,25.1,28.2,52,35.4,80.2h-78c-2.7-7.6-7.6-14.3-13.9-19.3C1917.4,314.7,1927.7,294.5,1940.7,275.3z
			 M1898.1,284.2c-7.6,14.3-14.3,29.6-19.7,44.8c-13.9,2.7-25.1,13-29.6,26h-32.7C1833.6,323.2,1862.7,297.7,1898.1,284.2z
			 M1796.8,430.3c0-14.8,2.2-29.6,6.3-43h48.8c2.7,4.9,6.7,9.4,11.2,13c-0.9,10.8-1.8,21.5-1.8,32.3c0,13.9,0.9,27.3,2.7,40.8h-60.9
			C1798.6,459.5,1796.8,445.1,1796.8,430.3z M1869.4,504.7c5.8,24.2,14.3,48,26,70.4c-34.1-13.4-62.3-38.5-79.8-70.4H1869.4z"/>
	</g>
</g>
<g id="b5a93e15-ef7c-9d7a-680b-cdb17474f15f" transform="matrix(2.2,0,0,2.2,90.86749374866484,130.23299922943116)">
	<path class="st5" d="M145.2,0.5L145.2,0.5c-1.5,0-2.7-0.5-3.6-1.5l0,0l0,0c-1-1-1.5-2.2-1.5-3.7l0,0l0,0c0-1.4,0.5-2.7,1.5-3.6l0,0
		l0,0c1-1,2.2-1.5,3.6-1.5l0,0l0,0c1.5,0,2.7,0.5,3.8,1.4l0,0l-1.4,1.5l0,0c-0.7-0.5-1.5-0.8-2.4-0.8l0,0l0,0
		c-0.9,0-1.7,0.3-2.2,0.9l0,0l0,0c-0.6,0.6-0.8,1.3-0.8,2.2l0,0l0,0c0,1,0.3,1.7,0.8,2.3l0,0l0,0c0.6,0.6,1.3,0.8,2.2,0.8l0,0l0,0
		c0.7,0,1.3-0.1,1.7-0.4l0,0v-1.8l-1.4,0v-1.9h3.4v4.8l0,0C147.9,0,146.7,0.5,145.2,0.5L145.2,0.5z M152.6-6.3v0.8l0,0
		c0.5-0.5,1.1-0.8,1.8-0.8l0,0l0,0c0.2,0,0.4,0,0.6,0l0,0l-0.3,1.9l0,0c-0.2-0.2-0.5-0.3-0.9-0.3l0,0l0,0c-0.5,0-0.9,0.4-1.2,1l0,0
		v4.2h-1.9v-6.6L152.6-6.3z M159.4,0.6L159.4,0.6c-1,0-1.8-0.3-2.5-1l0,0l0,0c-0.7-0.7-1-1.5-1-2.5l0,0l0,0c0-1,0.3-1.8,1-2.5l0,0
		l0,0c0.7-0.7,1.5-1,2.5-1l0,0l0,0c1,0,1.8,0.3,2.5,1l0,0l0,0c0.7,0.7,1,1.5,1,2.5l0,0l0,0c0,1-0.3,1.8-1,2.5l0,0l0,0
		C161.2,0.2,160.4,0.6,159.4,0.6L159.4,0.6z M159.4-1.1L159.4-1.1L159.4-1.1c0.5,0,0.9-0.2,1.3-0.5l0,0l0,0c0.3-0.3,0.5-0.8,0.5-1.3
		l0,0l0,0c0-0.5-0.2-1-0.5-1.3l0,0l0,0c-0.3-0.4-0.8-0.5-1.3-0.5l0,0l0,0c-0.5,0-0.9,0.2-1.3,0.5l0,0l0,0c-0.3,0.3-0.5,0.8-0.5,1.3
		l0,0l0,0c0,0.5,0.2,1,0.5,1.3l0,0l0,0C158.4-1.3,158.9-1.1,159.4-1.1z M168.3-1.9L168.3-1.9v-4.4h1.9v6.8h-1.9v-0.6l0,0
		c-0.5,0.4-1,0.6-1.6,0.6l0,0l0,0c-0.9,0-1.5-0.3-2-0.8l0,0l0,0c-0.5-0.5-0.7-1.1-0.7-1.8l0,0v-4.2h1.9v3.8l0,0
		c0,0.5,0.1,0.8,0.3,1.1l0,0l0,0c0.2,0.3,0.6,0.4,1,0.4l0,0l0,0C167.7-1.1,168-1.4,168.3-1.9z M173.7,3.4l-1.9,0v-9.5l1.9-0.2v0.6
		l0,0c0.5-0.4,1-0.6,1.5-0.6l0,0l0,0c1,0,1.9,0.3,2.5,1l0,0l0,0c0.6,0.7,0.9,1.5,0.9,2.4l0,0l0,0c0,0.9-0.3,1.7-0.9,2.4l0,0l0,0
		c-0.6,0.7-1.4,1-2.5,1l0,0l0,0c-0.7,0-1.2-0.2-1.5-0.6l0,0V3.4z M173.7-3.5L173.7-3.5v1.1l0,0c0.1,0.8,0.6,1.2,1.4,1.4l0,0l0,0
		c1.1-0.1,1.7-0.7,1.9-1.7l0,0l0,0c0-1.3-0.7-1.9-1.9-2l0,0l0,0C174.3-4.6,173.8-4.2,173.7-3.5z M183.1,0.6L183.1,0.6
		c-1,0-1.8-0.3-2.5-1l0,0l0,0c-0.7-0.7-1-1.5-1-2.5l0,0l0,0c0-1,0.3-1.8,1-2.5l0,0l0,0c0.7-0.7,1.5-1,2.5-1l0,0l0,0
		c1,0,1.8,0.3,2.5,1l0,0l0,0c0.7,0.7,1,1.5,1,2.5l0,0l0,0c0,1-0.3,1.8-1,2.5l0,0l0,0C185,0.2,184.1,0.6,183.1,0.6L183.1,0.6z
		 M183.1-1.1L183.1-1.1L183.1-1.1c0.5,0,0.9-0.2,1.3-0.5l0,0l0,0c0.3-0.3,0.5-0.8,0.5-1.3l0,0l0,0c0-0.5-0.2-1-0.5-1.3l0,0l0,0
		c-0.3-0.4-0.7-0.5-1.3-0.5l0,0l0,0c-0.5,0-0.9,0.2-1.3,0.5l0,0l0,0c-0.3,0.3-0.5,0.8-0.5,1.3l0,0l0,0c0,0.5,0.2,1,0.5,1.3l0,0l0,0
		C182.2-1.3,182.6-1.1,183.1-1.1z M189.8-3.9L189.8-3.9v4.4h-1.9v-6.6l1.9-0.2v0.6l0,0c0.4-0.4,1-0.6,1.6-0.6l0,0l0,0
		c0.9,0,1.5,0.3,2,0.8l0,0l0,0c0.5-0.5,1.2-0.8,2.2-0.8l0,0l0,0c0.9,0,1.5,0.3,2,0.8l0,0l0,0c0.5,0.5,0.7,1.1,0.7,1.8l0,0v4.2h-1.9
		v-3.8l0,0c0-0.5-0.1-0.8-0.3-1.1l0,0l0,0c-0.2-0.2-0.5-0.4-1-0.4l0,0l0,0c-0.4,0-0.7,0.3-1,0.7l0,0l0,0c0,0.1,0,0.3,0,0.4l0,0v4
		h-1.9v-3.8l0,0c0-0.5-0.1-0.8-0.3-1.1l0,0l0,0c-0.2-0.2-0.5-0.4-1-0.4l0,0l0,0C190.5-4.7,190.1-4.4,189.8-3.9z M200.9-4.3l-0.8-1.2
		l0,0c0.9-0.5,1.9-0.8,3-0.8l0,0l0,0c0.8,0,1.5,0.2,1.9,0.7l0,0l0,0c0.5,0.5,0.7,1.1,0.7,2l0,0v4.1h-1.9V0l0,0
		c-0.6,0.4-1.1,0.5-1.5,0.5l0,0l0,0c-0.9,0-1.6-0.2-2-0.6l0,0l0,0c-0.5-0.4-0.7-0.9-0.7-1.6l0,0l0,0c0-0.6,0.2-1.2,0.7-1.7l0,0l0,0
		c0.4-0.5,1.1-0.7,2.1-0.7l0,0l0,0c0.4,0,1,0.1,1.5,0.4l0,0v-0.2l0,0c0-0.5-0.4-0.8-1.1-0.8l0,0l0,0C202-4.8,201.4-4.6,200.9-4.3
		L200.9-4.3z M203.9-1.5L203.9-1.5v-0.8l0,0c-0.2-0.4-0.6-0.5-1.3-0.5l0,0l0,0c-0.8,0.1-1.3,0.4-1.3,1l0,0l0,0
		c0,0.5,0.5,0.8,1.3,0.9l0,0l0,0C203.3-1,203.7-1.2,203.9-1.5z M209.5-3.8L209.5-3.8v4.3h-1.9v-6.6l1.9-0.2v0.6l0,0
		c0.5-0.4,1-0.6,1.6-0.6l0,0l0,0c0.9,0,1.5,0.3,2,0.8l0,0l0,0c0.5,0.5,0.7,1.1,0.7,1.8l0,0v4.2h-1.9v-3.8l0,0c0-0.5-0.1-0.8-0.3-1.1
		l0,0l0,0c-0.2-0.2-0.6-0.4-1-0.4l0,0l0,0C210.1-4.7,209.7-4.4,209.5-3.8z M217.3,0.5h-1.9v-6.8h1.9V0.5z M215.3-8L215.3-8L215.3-8
		c0,0.3,0.1,0.5,0.3,0.7l0,0l0,0c0.2,0.2,0.4,0.3,0.8,0.3l0,0l0,0c0.3,0,0.6-0.1,0.8-0.3l0,0l0,0c0.2-0.2,0.3-0.4,0.3-0.7l0,0l0,0
		c0-0.3-0.1-0.5-0.3-0.7l0,0l0,0c-0.2-0.2-0.4-0.3-0.8-0.3l0,0l0,0c-0.3,0-0.6,0.1-0.7,0.3l0,0l0,0C215.4-8.5,215.3-8.2,215.3-8z
		 M219.8-4.3l-0.8-1.2l0,0c0.9-0.5,1.9-0.8,3-0.8l0,0l0,0c0.8,0,1.5,0.2,1.9,0.7l0,0l0,0c0.5,0.5,0.7,1.1,0.7,2l0,0v4.1h-1.9V0l0,0
		c-0.6,0.4-1.1,0.5-1.5,0.5l0,0l0,0c-0.9,0-1.6-0.2-2.1-0.6l0,0l0,0c-0.5-0.4-0.7-0.9-0.7-1.6l0,0l0,0c0-0.6,0.2-1.2,0.7-1.7l0,0
		l0,0c0.4-0.5,1.1-0.7,2.1-0.7l0,0l0,0c0.4,0,0.9,0.1,1.5,0.4l0,0v-0.2l0,0c0-0.5-0.4-0.8-1.1-0.8l0,0l0,0
		C220.9-4.8,220.3-4.6,219.8-4.3L219.8-4.3z M222.8-1.5L222.8-1.5v-0.8l0,0c-0.2-0.4-0.6-0.5-1.3-0.5l0,0l0,0
		c-0.8,0.1-1.3,0.4-1.3,1l0,0l0,0c0,0.5,0.5,0.8,1.3,0.9l0,0l0,0C222.2-1,222.7-1.2,222.8-1.5z"/>
</g>
</svg>
