<svg xmlns="http://www.w3.org/2000/svg" viewBox="0 0 70 70"><defs><style>.cls-1{fill:#ffd7d7;}</style></defs><g id="Calque_2" data-name="Calque 2"><g id="Calque_1-2" data-name="Calque 1"><g id="_9269873b-566f-aa23-fe77-697bbc54db67" data-name="9269873b-566f-aa23-fe77-697bbc54db67"><path class="cls-1" d="M35,70A34.89,34.89,0,0,0,70,35,34.89,34.89,0,0,0,35,0,34.89,34.89,0,0,0,0,35,34.89,34.89,0,0,0,35,70Zm2-6a17.14,17.14,0,0,1-2,.08c-.92,0-1.85-.08-2.76-.17a51.34,51.34,0,0,1-6.62-15H40.43a7.29,7.29,0,0,0,2.51,3.18A49.84,49.84,0,0,1,37,64ZM45,62.38a53,53,0,0,0,3.85-9A7.29,7.29,0,0,0,54.09,49h6.44A29.8,29.8,0,0,1,45,62.38ZM64.06,35A32.06,32.06,0,0,1,63,43h-9a7.89,7.89,0,0,0-2.34-2.84c.17-1.85.25-3.68.25-5.53A57.41,57.41,0,0,0,51.34,27H62.88A25.52,25.52,0,0,1,64.06,35ZM60.53,21H50.31A56.16,56.16,0,0,0,45.46,7.88,29.63,29.63,0,0,1,60.53,21ZM46,34.66c0,1.42-.07,2.84-.17,4.28a7.31,7.31,0,0,0-5.19,4.11H24.47a57.23,57.23,0,0,1-.58-7.62,44.5,44.5,0,0,1,.24-4.76,7.51,7.51,0,0,0,5-3.68H45.48A58.82,58.82,0,0,1,46,34.66ZM32.83,6.05C33.58,6,34.35,6,35,6c.84,0,1.68,0,2.5.07a51,51,0,0,1,6.61,15H29.57a8.07,8.07,0,0,0-2.6-3.6A54.48,54.48,0,0,1,32.83,6.05ZM24.88,7.71a62.88,62.88,0,0,0-3.68,8.37,7.41,7.41,0,0,0-5.53,4.86H9.56A29.52,29.52,0,0,1,24.88,7.71ZM6,35a27.94,27.94,0,0,1,1.17-8h9.12a8.47,8.47,0,0,0,2.09,2.43c-.17,2-.34,4-.34,6a56.48,56.48,0,0,0,.51,7.62H7.13A26,26,0,0,1,6,35ZM19.52,48.9A57.1,57.1,0,0,0,24.37,62,29.23,29.23,0,0,1,9.47,48.9Z"/></g></g></g></svg>