<svg xmlns="http://www.w3.org/2000/svg" viewBox="0 0 300 274.61"><defs><style>.cls-1{isolation:isolate;}.cls-2{fill:#606e79;}.cls-3{fill:#561d10;}.cls-4{fill:#ffa47c;}.cls-5{fill:#4f2718;}.cls-6{fill:#ffbd95;}.cls-7{fill:#8d3b26;}.cls-8{fill:#002d56;}.cls-9{fill:#00233f;}.cls-10,.cls-26{fill:#99a2a9;}.cls-11{fill:#6d361a;}.cls-12{fill:#191919;}.cls-13{fill:#74a940;}.cls-14{fill:#88bd4f;}.cls-15{fill:#303030;}.cls-16{fill:#b8d1ff;}.cls-17{fill:#cee0ff;}.cls-18{fill:#3b1b1d;}.cls-19{fill:#722c1d;}.cls-20{fill:#e0f2ff;}.cls-21{fill:#e8e2d6;}.cls-22{fill:#90a4a2;}.cls-23{fill:#4b5b60;}.cls-24{fill:#c9dad8;}.cls-25{fill:#424249;}.cls-26{mix-blend-mode:soft-light;}.cls-27{fill:#79858e;}.cls-28{fill:#b9b9bd;mix-blend-mode:multiply;}.cls-29{fill:#8e8e8e;}.cls-30,.cls-31{fill:#757575;}.cls-30{opacity:0.5;}</style></defs><g class="cls-1"><g id="Calque_2" data-name="Calque 2"><g id="Calque_1-2" data-name="Calque 1"><polygon class="cls-2" points="143.15 99.22 105.06 140.88 110.09 56.08 141.26 46.84 143.15 99.22"/><path class="cls-3" d="M142.34,38.4s-3.62-2.64-11.51-3.5-11.91.53-11.91.53l-1-12.82,3-12.45,18.26,3.15,3.22,13.51Z"/><path class="cls-4" d="M119.78,227.53c-.12,2.33-1.56,4.44-2.14,5.59-.7,1.39-.52,3.72.15,4.35,1.84,1.72,4,1.09,6.18,2.48s5.59,6.37,7.46,6.83,6.17.26,6.43-.63-4.23-4.18-4.23-4.18c-6.74-8.28-7.5-12.58-7.5-12.58S119.8,227.18,119.78,227.53Z"/><path class="cls-5" d="M133.63,242s1.29,1.08,1.09,1.41c-.3.48-2.24.3-2.74.05a52.67,52.67,0,0,1-11.91-8.85,6.91,6.91,0,0,1-1.48-3.36c-.39,0-2,2.6-1.59,4.55a5.84,5.84,0,0,0,.79,1.7c1,1,4.55,2.65,5.53,3.26,2.22,1.38,5.31,6.38,7.19,6.84s8.24.34,8.5-.56C139.22,246.31,135.74,243.43,133.63,242Z"/><path class="cls-5" d="M117,235.42s1.33,3.58,1.73,4.78a39.52,39.52,0,0,1,1,5.72l.82,0s-1.08-7.35,2.81-5.14C124.53,241.41,117,235.42,117,235.42Z"/><path class="cls-4" d="M135.89,175.16c-6.3,3.26-11.14,15.3-12.33,20.13s-3.4,32.07-4,33.77,6.26,1.72,6.51.74c2.42-9.74,12.84-34.25,14-36.64s6-13.4,6.34-14.53C148.23,172.86,139.49,173.3,135.89,175.16Z"/><path class="cls-4" d="M172.71,129.75a20.92,20.92,0,0,1,0,3.28,14.33,14.33,0,0,1-.91,2.1,2.54,2.54,0,0,0-.05,1.83c.47.37,1.07-.46,1.3-1a14.1,14.1,0,0,0,.95-2.45,13.63,13.63,0,0,0,.53-3.24C174.43,129.72,172.71,129.75,172.71,129.75Z"/><path class="cls-4" d="M172.85,128.94a19,19,0,0,1-.85,2.93c-.33.53-.75.59-1.37,1s-1.1,1-1,1.6,1,.07,1.44-.16a5.12,5.12,0,0,0,1.92-1.67,12.59,12.59,0,0,0,1.35-2.74C174.4,129.38,172.85,128.94,172.85,128.94Z"/><path class="cls-4" d="M172.75,128.58a15.32,15.32,0,0,1-1.14,2.29c-.35.39-.71.39-1.29.66s-1.07.7-1,1.17.8.21,1.23.08a4.2,4.2,0,0,0,1.84-1.09,10.54,10.54,0,0,0,1.52-2.06C174,129.18,172.75,128.58,172.75,128.58Z"/><path class="cls-6" d="M167.32,134.42c.23.3,1-.17,1.51-.81a4.75,4.75,0,0,0,.42-3.09c-.16-.79-.06-2,.52-2.1a5,5,0,0,1,3,1.48c.53,1,1.44,2.39,1.44,3.17a11.89,11.89,0,0,1-.76,2.9,5.08,5.08,0,0,0-.45,2.11.8.8,0,0,0,.69.7c.3.07.44-1.08,1-1.95a24.57,24.57,0,0,0,1.65-3.35c.05-.19-.48-3.48-.69-4.47s-3.41-5-3.37-5.43-3.11-7.24-3.11-7.24l-5.45,1.37s3,4.77,3,5.65a17.53,17.53,0,0,1-.41,3c-.29,1.7.6,3.78.82,4.6C167.59,132.38,167,134,167.32,134.42Z"/><path class="cls-7" d="M112.81,224.78s.44,3.3-.43,5.19-4.11,5.81-5.66,5.37-3.21-4.79-3.4-5.48c-1.16-4.3,1.47-11.13,1.47-11.13Z"/><path class="cls-4" d="M143.73,48.61c3.33-.43,7.11,9.58,8.31,20.6,2.07,19.17,5.55,25.1-.28,26.4C146.47,96.8,145.28,89,141.31,73,138.21,60.38,136.82,49.51,143.73,48.61Z"/><path class="cls-6" d="M100.08,43.71c1.72-2.55,9.9-2.61,13-3s12,.88,12,.88,8.75,1.86,11.57,3.27,10.43,4.24,11.17,7.22c1.12,4.52-15.86,25.41-10.17,40.13,1.89,4.88,13,17.79,13,23,.06,6.4-18.83,15.43-18.83,15.43l-1.17.31-1.16.32s-20.87,1.62-24-4c-2.58-4.56,2.62-27.27,2-33.56C105.75,77.66,97.48,47.57,100.08,43.71Z"/><path class="cls-4" d="M150.63,116.4c2.66,4.07,3.14,11.74,2.74,21.79-.55,13.7-5.2,34-5.61,36-1.84,9-10.59,9.29-12.45,2.4-.52-1.9-5-40.44-4.89-44.81s0-12.37,2.79-17.43C135.27,110.57,146.67,110.32,150.63,116.4Z"/><path class="cls-6" d="M119.47,36c1.3-2.17,2.75-10.93,2.75-10.93l5.57,1,5.56,1s-1.63,8.73-1.14,11.21,4.4,6.67,4.4,6.67l-11.78-2.08-11.78-2.07S118.17,38.15,119.47,36Z"/><path class="cls-6" d="M149.92,87.85c2.9-1,8.56,2.39,12.41,11.44,4.45,10.43,11.06,25.27,8.59,26.45-1.16.55-2.68-.38-3.78-2.59-2.3-4.64-8.44-11.25-12.86-17.19C147.49,96.79,144.34,89.84,149.92,87.85Z"/><path class="cls-4" d="M119.47,36s1.58-5,1.58-5c.37-1.62.69-3.26.9-4.4v0L127.3,26l.49.09,5.56,1s-1.63,8.73-1.14,11.21,4.4,6.67,4.4,6.67-7.3-3.24-8.65-4Z"/><path class="cls-6" d="M141,21.12c-1.55,8.74-10.3,14.5-14.77,13.71s-9-9-8.23-17.93,7-13.59,13.61-12.42S142.49,12.38,141,21.12Z"/><path class="cls-7" d="M124.82,10.45c.92,2.47,3.33,4,8.65,4.52,3.82.38,6.19,5.71,6.11,7.81,0,.8,2.76,15.62,2.76,15.62s4.56-18.73-2.62-28.95-16.26-4.66-16.35-3.87S124.38,9.25,124.82,10.45Z"/><path class="cls-7" d="M127,8.44s0,3.73-3.2,4.35c-6,1.19-4.92,22.64-4.92,22.64S112.5,8.56,123.37,5.58C129.57,3.88,127,8.44,127,8.44Z"/><path class="cls-6" d="M113.79,215.73s-.86,9.5-1.27,10.5-3.06,4.39-4.47,3.81c-3.94-1.61-4.15-9.77-3-12.08.68-1.34,1.32-2.78,1.84-3.7a15.15,15.15,0,0,1,2.61-3.58Z"/><path class="cls-6" d="M137.14,170c3.7,3.34,3.88,6.5-1.53,15.63s-22,32.23-23.15,31.46-5.35-4.14-3.18-6.79c1.46-1.8,1.71-5.24,3.69-10.53,3.4-9.11,8-20.57,9.08-22.45C123.81,174.39,131.21,164.7,137.14,170Z"/><path class="cls-6" d="M105,122.12c-1.06,4.75,1.19,12.1,5.09,21.37,5.32,12.63,16.82,30,17.89,31.72,4.88,7.77,13.18,5,12.5-2.13-.19-2-9.49-39.63-11.16-43.67s-4.37-11.57-8.74-15.34C117.29,111.27,106.53,115,105,122.12Z"/><path class="cls-8" d="M141.26,46.84l0,21s-4.9,14.46-3,21.6,9.72,15.26,14.23,25.16,0,42.28,0,42.28-12,3.85-15.81-.08-9.62-2.59-11.78-1-7.63,7-7.63,7-10.93-17.6-13.24-34.05c-1.84-13.16,3.08-29.64,2.11-36.34s-4.95-33.71-4.95-33.71,5.67.57,11.84.87c1.87.09-3.63-17.34-1.82-17.33,4.4.05,5.89,18.93,16.9,16.45,8.18-1.84,8-14.42,8-14.42Z"/><path class="cls-9" d="M110.14,73.66c2.41-1.6,17.46,3.41,23.43,2.21,4.75-1,6.76-5.44,7.39-7.23-1,3.07-4.38,14.66-2.77,20.81,1.87,7.14,9.72,15.26,14.23,25.16s0,42.28,0,42.28-12,3.85-15.81-.08a1.73,1.73,0,0,0-.21-.17l-6.83-20.15s11.08,3.21,10.91-6.43S130.81,98.75,128,93.13,107.73,75.27,110.14,73.66Z"/><path class="cls-10" d="M113.05,40.75a106.48,106.48,0,0,1,4,13.94c1,5.7-9.19,52-10.88,61.65s-1.09,24.54-1.09,24.54l-5.73-5.58s4-25,3.91-38.69S97.62,49.32,98.67,44.9,113.05,40.75,113.05,40.75Z"/><path class="cls-10" d="M137.65,44.9s2.71,21.44,2.39,26.86,3.11,27.46,3.11,27.46,5.72-44,5.19-46.79C147.61,48.53,137.65,44.9,137.65,44.9Z"/><path class="cls-4" d="M101.49,42.74c2.91-1.07,6.86,5.46,8.6,13.34,3,13.68,6.45,17.27,1.41,19.55-4.58,2.07-6.11-3.4-10.6-14.37C97.39,52.67,95.48,45,101.49,42.74Z"/><path class="cls-4" d="M106.56,74c-1.9-2.35,2.93-9.38,12.06-15.24,10.52-6.74,25.45-16.63,27-14.46,2.13,3-10.15,12.22-18.92,20.89S110.48,78.82,106.56,74Z"/><path class="cls-4" d="M138.58,47.33s1.83-1.31,1.48-4.63a8,8,0,0,1,2.15-6,36.54,36.54,0,0,1,3-3.35c1-.26.65.94.94.85s1.33-.44,1.42.57.36.82.71,1,.51,1,.31,1.39.37.62.36,1.18a2.92,2.92,0,0,1-.78,1.62,5.78,5.78,0,0,0-1.51,4.31c0,2.07-.22,5.39-3.48,6.2S138.58,47.33,138.58,47.33Z"/><path class="cls-11" d="M198.5,6.51s1.61-6.77,8.34-6.5c5.77.22,10.35,5.58,8.24,13.76-2.33,9.05-.74,16.6.13,16.45s.62,2.2-1.31,2.63-7.83.3-8.36-6.07a19.44,19.44,0,0,0-3.76-10.21Z"/><path class="cls-7" d="M202.46,231a2.68,2.68,0,0,1,1.58,2.25c.06,1.23.18,8.94.18,8.94a11.52,11.52,0,0,0-3.59,2.28c-1.59,1.43-3,4.54-5.2,5.43-2.64,1.09-5.69,1.18-6.87.68-1-.4-.64-2.58.77-4.83l4.68-7.49Z"/><path class="cls-6" d="M195.33,229.61a33.11,33.11,0,0,1-.78,4.58,56.2,56.2,0,0,1-3,9.17c-1,2-.83,3.39,2.26,2.49s8-8.83,8.93-12.17c.42-1.51-.49-3.1-.67-4.07C201.59,227.32,195.33,229.61,195.33,229.61Z"/><path class="cls-7" d="M235.3,241.27s1.86,2.69,2,4.76-.77,7.08-2.24,7.43-4.83-2.66-5.29-3.18c-2.91-3.21-3.82-10.47-3.82-10.47Z"/><path class="cls-6" d="M232,232.86s3.59,8.75,3.7,9.82-.55,5.33-2,5.5c-4,.47-7.85-6.59-7.93-9.17s-.2-5.39-.2-5.39Z"/><path class="cls-12" d="M189,44.35c-2.73-1.89-10.58,5.16-16.63,14.28C161.84,74.49,156.1,78.1,160.62,81.89c4.1,3.45,8.66-2.83,19.43-15.12C188.48,57.17,194.62,48.28,189,44.35Z"/><path class="cls-8" d="M184.4,108.43c-1.56,4.06-2.75,7.83-2.2,9.93,1.57,6.12,19.63,11.3,19.63,11.3H203V109.83C196.07,109.83,191.36,108.43,184.4,108.43Z"/><path class="cls-8" d="M183,114.67c-2.31,4.2-2.2,11.78-1,21.64,1.56,13.44,6,34.85,6.52,36.75,2.49,8.71,11.06,8.34,12.38,1.43.36-1.91,3.29-40.53,2.81-44.83s-2.82-12.16-5.92-16.93C195.47,109.18,186.48,108.39,183,114.67Z"/><path class="cls-6" d="M225.36,48c-1.23-2.77-7.61-4-10.53-4.87S203,41.89,203,41.89s-14,1.39-17,1.28c-1.28-.05-2.22,4.56-2.71,5.87-2.76,7.37-6.05,15.94.87,21.92,1.58,1.36,3,16.91,3,24.12a38.53,38.53,0,0,1-2.76,13.35c7,0,11.67,1.4,18.63,1.4H223.9c-2.15-5.61-4.47-11.8-5-14.75C214.83,72.91,227.22,52.15,225.36,48Z"/><path class="cls-8" d="M203,182.85c-.36-13.35-4.06-16-8.83-16-7.64,0-6.37,14.27-6.25,18.6s5.9,38.66,7.38,44.14H202C202.91,220.27,203.32,193.79,203,182.85Z"/><path class="cls-13" d="M185.06,43c4.64,0,7.33,3,5.29,10.69s-10,16.87-10,16.87l-11.81-9.89S180.67,43,185.06,43Z"/><path class="cls-6" d="M209.41,37.35c-.9-2.32-.81-11.09-.81-11.09H197.45s.09,8.77-.8,11.09-5.43,5.73-5.43,5.73h23.61S210.3,39.68,209.41,37.35Z"/><path class="cls-14" d="M225.36,48c-1.23-2.77-9.08-5.19-12-6.06a18.34,18.34,0,0,1-15.73,6.4c-3.27-.34-6.41-5.21-6.41-5.21-1.72-.07-3.95.13-5.18.09s-2.22,4.56-2.71,5.87c-2.76,7.37-6.05,15.94.87,21.92,1.58,1.36,3,16.91,3,24.12a38.53,38.53,0,0,1-2.76,13.35c7,0,11.67,1.4,18.63,1.4H223.9c-2.15-5.61-4.47-11.8-5-14.75C214.83,72.91,227.22,52.15,225.36,48Z"/><path class="cls-9" d="M232.23,232.88c.07-4.67-4.4-41.53-5.52-46s-3.24-21.28-13.83-17.93c-4.57,1.45-5.51,4.78-2.06,18.5,2.81,11.16,11.11,37.44,14.83,46.79C227.82,234.05,232.23,233.18,232.23,232.88Z"/><path class="cls-8" d="M203,109.83v19.83h1.19s20.3-3.78,21.88-9.9c.54-2.09-.64-5.87-2.2-9.93Z"/><path class="cls-8" d="M224.91,114.74c2.56,4.06,2.91,11.63,2.37,21.54a352.42,352.42,0,0,1-4.47,35.47c-1.95,8.84-12.19,8.95-13.93,2.13-.47-1.88-4.36-40-4.14-44.29s.21-12.2,3-17.15C209.84,108.76,221.09,108.69,224.91,114.74Z"/><path class="cls-4" d="M208.66,30.6c-.08-2.34-.06-4.34-.06-4.34H197.45s.09,8.77-.8,11.09-5.43,5.73-5.43,5.73L208.66,30.6Z"/><path class="cls-6" d="M211.1,19.59c.11,8.75-7.3,16-11.77,16S189,28.58,188,19.75,192.3,5.29,198.91,5.2,211,10.83,211.1,19.59Z"/><path class="cls-7" d="M196,12.14c1.35,2.22,4.39,2.87,9.65,2.39,3.77-.34,4.74,3.52,5.05,5.57a31.88,31.88,0,0,1-.31,4.15s5.59-7.49-2.2-17C202.82.56,195.06,5,193.72,6.41,193.19,7,195.39,11.06,196,12.14Z"/><path class="cls-7" d="M197.4,9.44c-.11,1.33-1.3,4.7-4.43,5.24-5,.87-4.83,6-4.83,6S182.59,10,191,6.28C196.31,3.93,197.5,8.23,197.4,9.44Z"/><path class="cls-13" d="M211,72.08c-5.62,2.22-11.06-1.14-15.6-.8-9.53.72-12.79-4.67-14.21-6.77s-.08-8.9,0-9.29c-1.65,5.65-2,11.38,3,15.74,1.58,1.36,3,16.91,3,24.12a38.53,38.53,0,0,1-2.76,13.35,98.5,98.5,0,0,1,11.67,1s-.61-5.24-1.23-7.93,0-10.53,2.28-15,15.7-7.24,17-8.55C217.86,74.18,220.2,68.45,211,72.08Z"/><path class="cls-9" d="M212.31,177.56c-.72-4.83-1.81-26.57-3.26-38.42-1.08-8.74-3.24-9.72-4.31-9.63v.09c-.2,4.27,3.16,39.75,4,46.11a58.47,58.47,0,0,0,2.08,11.75c2.81,11.16,11.11,37.44,14.83,46.79.55-.05,2.49-.17,3.23-.29l1.51-.49s-8.75-30.22-13.63-45C215.49,184.62,212.85,181.2,212.31,177.56Z"/><path class="cls-9" d="M185.61,121.38c-.36-5.47,6.58-10.36,9.72-12.06-4.41-.28-10.93-.89-10.93-.89-4.32,6.42-3.56,18-2.41,27.88,1.54,13.26,5.84,34.23,6.49,36.63-1,4.43-.59,10.07-.53,12.53.12,4.24,5.9,38.66,7.38,44.14L191,175.3S186.1,128.94,185.61,121.38Z"/><path class="cls-4" d="M163.7,82.24c-2.81,1.14-7.38-3.7-9.29-11.73-2.21-9.25-5.62-22.43-3.09-23.32C154.78,46,158.6,57,163.19,65.13S169.53,79.9,163.7,82.24Z"/><path class="cls-6" d="M236.5,86.48c2.92.63,3.83,8.43.79,17.81-3.5,10.8-8.27,26.35-10.83,25.66-3.49-.94-.29-14.55.67-25.75C228.1,92.85,230.45,85.18,236.5,86.48Z"/><path class="cls-15" d="M218.25,46.31c3.51-1.37,9.59,8.17,13.09,19.49,6.08,19.68,11,25,5,28-5.46,2.7-8.3-5.19-15.8-21.08C214.68,60.25,211,49.15,218.25,46.31Z"/><path class="cls-4" d="M155,54.5s.31-3,1-3.91,2.33-4.35,2.07-6.21a13.91,13.91,0,0,1,1-5.51c.26-.52-.87-.73-1.67,0s-1,4.65-1.63,4.71-2.18-10.49-3-10.59c-1.19-.16.14,7.11-.31,7.25-1,.29-1.88-7.27-2.86-7.27-1.25,0,.74,7.87.28,7.93s-3.12-6.45-4-6.14c-1.14.4,2.42,6.7,1.83,7-.36.16-3.09-3.3-3.65-2.74-.33.33,2.45,4.18,2.84,4.87s2.39,6.85,3.19,7.13,1.83,3.12,1.83,3.12Z"/><path class="cls-12" d="M163.7,82.24c-2.81,1.14-6.83-1.33-9.75-11.48a112.43,112.43,0,0,1-3.54-17.65c-.17-1.39,5.9-2.06,6.87-.11,2.53,5.06,4,7.18,6.79,12.74C168.49,74.54,169.53,79.9,163.7,82.24Z"/><path class="cls-15" d="M236.5,86.48c2.92.63,4.2,8.29,1.16,17.67-2.54,7.82-4.92,15.62-6.27,18.95-.61,1.51-6.76-.59-6.72-1.36.14-3.13.9-6.24,1.86-17.44S230.45,85.18,236.5,86.48Z"/><path class="cls-14" d="M213,48.43c1.94-4.22,7.29-6,12.28.26s6.77,19.49,6.77,19.49l-15,3.58S209.07,57,213,48.43Z"/><path class="cls-6" d="M225.06,124.32s-1.83,1.44-2.06,1.73-1.89,3-2.7,3.48-1.44.59-1.56.76-.1,2,1.44,1.44,2.82-1.91,3.31-1.85.56,3.58.29,4.31-2.74,5.3-2.84,5.53-.27.93-.09,1.1,1.43-.12,1.67-.32.41.43.69.38,1.25-.38,1.25-.38a4.56,4.56,0,0,0,1.59-.37,21.53,21.53,0,0,0,2.26-2c.13-.23,2.49-4.26,2.63-5.33s-.89-8-.89-8Z"/><path class="cls-6" d="M241.2,65.16c.11,5.8-4.67,7.62-10.38,7.35s-34.62-7.71-35.71-9.2-.15-9.81,2.36-10.7,28,1.69,32.7,2.73S241.08,58.35,241.2,65.16Z"/><path class="cls-16" d="M239.61,60.23c-1.26-1.82-5-5.74-13.83-6.76-5.93-.68-17.28-1.68-17.28-1.68a20.41,20.41,0,0,0-2.8,9,18.72,18.72,0,0,0,1.77,9.85s23.66,2.69,28.16.83C237,71,243.1,65.28,239.61,60.23Z"/><path class="cls-6" d="M204.05,61.59c-1.77,6.07-14,1.34-19.82-1.27s-22.89-13.23-22.89-13.23l2.87-4.22A138.11,138.11,0,0,1,198,50.62C199.7,51.27,205.85,55.43,204.05,61.59Z"/><path class="cls-12" d="M284.23,259.83s-4,7.41-3.38,9c.36.91,3.35,3.83,7.51,3.2,3.16-.48,7.64-4.41,8.42-4.67,1.79-.58-.33-10.45-.33-10.45Z"/><path class="cls-6" d="M246,28.7s5.14,16.2,6.31,16.73c3.63,1.67,15,.85,18.14,4.6,3.85,4.56-3.79,35.28-3.45,43.49s7.72,22.08,8.95,29.94-23.47,17.42-24.38,17.42-8.88-7.41-10.4-10,.46-18.66-.89-23.62-8.42-23.71-8.95-24.79a35.52,35.52,0,0,1-3.35-15.39c-.14-1.69-1-4.35-.43-5.59,1.05-2.48,9.25-7.59,9.12-8.65s-2.77-15.62-2.77-15.62Z"/><path class="cls-17" d="M252.26,45.43,240.2,57.91l-3.58-5s-7.74-.43-8.31,1.16c-.84,2.32-2.27,13.38-1.65,18.11.23,1.74,2.68,7.51,5.11,13.92,1.42,3.75,2.7,8.86,5.06,15.27,2,5.48,3.14,17.32,3.14,17.32s5.55.22,14.16-.22c10-.51,20-2.06,20.48-2.43,1.91-1.58-5.56-19.11-5.67-20.84s4.58-37.19,3.76-41a7.89,7.89,0,0,0-6.62-6.38C262.87,47.14,252.26,45.43,252.26,45.43Z"/><path class="cls-16" d="M264.49,47.49s10.77,2.66,3.41,12.36c-3.17,4.18-6.17,19.71-9.49,21.79-11.86,7.43,1.92,27.81,3.51,30.05a10.25,10.25,0,0,1,1.57,5.3l12.88-1.48c4,.78-7.41-20.51-7-24.9s4.18-33.43,3.36-36.44A8.79,8.79,0,0,0,264.49,47.49Z"/><polygon class="cls-4" points="234.99 43.55 248.13 34.39 250.81 42.91 247.05 46.84 234.99 43.55"/><path class="cls-6" d="M225.61,17c2.93-4.22,13.11-9.8,20.06-3.85s6.22,13.55,4.32,18.58c-1.48,3.92-3.23,6.3-7.12,9.23-.8.59-8.49,3.79-10.21,3.61-1.18-.13-3.83-7.91-4.14-7.81a1.46,1.46,0,0,1-1.5-.8c-.28-.93-.56-6.89-.93-7.44S222.26,21.79,225.61,17Z"/><path class="cls-7" d="M224.2,21s5.32-4.82,14.47.38c2,1.12.32,8.15.86,8.62s5-6,4.92-5.23c-.54,7.82,2.77,11.32,3.45,11.21,2.06-.32,6-12.08,1-19.74s-14.15-6.47-16.19-5.53S224.28,13.59,224.2,21Z"/><path class="cls-6" d="M241.25,27.21c-.19,2.5.19,5.72,1.54,5.81s2.59-1.86,2.78-4.36-.76-4.59-2.11-4.68S241.44,24.72,241.25,27.21Z"/><rect class="cls-12" x="252.04" y="260.36" width="9.64" height="1.8" transform="translate(513.73 522.51) rotate(180)"/><path class="cls-12" d="M261.31,247.68a16.92,16.92,0,0,1,2.24,6.77c.15,1.9-1,5.91-2.23,5.91a92.14,92.14,0,0,0-11.77.65c-3.76.51-5.16,2.67-14.78,2.65-2.8,0-7.75-.18-7.75-1.33,0-5,9.22-3.21,12.15-5.91,7.4-6.82,12.34-8.47,12.34-8.47S261.05,247.32,261.31,247.68Z"/><path class="cls-12" d="M256.73,116.33s12.84,12.83,13.43,18.43-4.82,23.51-6.74,37.59-3.09,16.94-2.62,20.26,4.26,16.79,4.13,25.77c-.15,10.47.4,31.9.4,31.9s-2.8,2.19-10,2.16c-4.64,0-8.64-3.31-8.64-3.31s-2.9-52.6-3.49-58.13c-.38-3.57-3.3-28.25-4.2-48.37-.29-6.47,1.2-25,1.2-27.66Z"/><polygon class="cls-16" points="239.91 54.33 240.19 57.91 246.57 51.38 239.91 54.33"/><polygon class="cls-16" points="240.19 57.91 237.86 54 236.42 55.92 240.19 57.91"/><path class="cls-15" d="M276.73,115.43s5.13,12.58,7.17,21,4.47,52,5.2,56,3.29,16.61,5.27,29,3.15,37.2,3.15,37.2l-15.84,2.48s-9.44-52.09-10.93-60.28-17.19-66.25-17.19-66.25l-1.94-18.68Z"/><path class="cls-12" d="M276.23,151c1.33,5.58,5.2,43.43,5.52,45.57s10.11,60.19,10.56,62.88l5.21-.82s-1.18-24.84-3.15-37.2-4.54-24.89-5.27-29-3.16-47.62-5.2-56-7.17-21-7.17-21l-13.87.42S274.91,145.43,276.23,151Z"/><path class="cls-18" d="M277.08,115.43s-24.38.41-25.84.45-11-.91-11-.91l-.19,3.85s9.3.77,13.75.77,24.2-1,24.2-1Z"/><rect class="cls-19" x="247.76" y="115.64" width="6.19" height="4.45" rx="2.08" transform="translate(501.71 235.73) rotate(180)"/><polygon class="cls-12" points="242.26 55 236.49 55.05 238.11 59.35 241.02 59.25 242.26 55"/><path class="cls-12" d="M238.11,59.35A43.75,43.75,0,0,0,236,80.69c1.74,12.31,1.59,40.17,1.59,40.17l3.22,5.65,3.88-6.67s-2.63-30.4-4.08-39.37.41-21.22.41-21.22Z"/><polygon class="cls-20" points="254.48 45.78 250.81 42.91 239.91 54.33 243.23 58.42 254.48 45.78"/><polygon class="cls-20" points="237.86 54 235.72 58.38 234.22 54.72 236.14 51.54 237.86 54"/><path class="cls-6" d="M260,51.09c3.26-4.91,8.19-3.79,12.7-.41s27.15,28.7,27.18,30.55-5.52,8.27-8.08,7.62-25.25-20-28.45-23.47S256.16,56.83,260,51.09Z"/><path class="cls-17" d="M258.08,55.8c0,2.24.87,7.46,4.29,10,4.83,3.64,16.82,14.1,16.82,14.1a20.84,20.84,0,0,0,7.52-6,18.94,18.94,0,0,0,4.15-9.27s-18.4-15.33-23.1-16.81C264,46.68,258,49.57,258.08,55.8Z"/><path class="cls-6" d="M298.39,79.22c5.2,3.74-3.46,13.81-7.94,18.52s-17.68,18.75-17.68,18.75L267.4,112s6.8-17.07,18.45-30.68C287.05,79.89,293.1,75.41,298.39,79.22Z"/><path class="cls-6" d="M265.77,126.85h0a1.24,1.24,0,0,1-.45-1.69l2.64-4.62a1.25,1.25,0,0,1,1.7-.46h0a1.24,1.24,0,0,1,.45,1.69l-2.64,4.62A1.24,1.24,0,0,1,265.77,126.85Z"/><path class="cls-6" d="M263.64,125.89h0a1.24,1.24,0,0,1-.45-1.69l2.64-4.61a1.24,1.24,0,0,1,1.7-.46h0a1.24,1.24,0,0,1,.45,1.69l-2.64,4.62A1.25,1.25,0,0,1,263.64,125.89Z"/><path class="cls-6" d="M261.62,124.82h0a1.25,1.25,0,0,1-.46-1.7l2.65-4.61a1.24,1.24,0,0,1,1.7-.46h0a1.26,1.26,0,0,1,.46,1.7l-2.64,4.61A1.26,1.26,0,0,1,261.62,124.82Z"/><path class="cls-6" d="M259.78,123.61h0a1.25,1.25,0,0,1-.45-1.7L262,117.3a1.25,1.25,0,0,1,1.7-.46h0a1.25,1.25,0,0,1,.45,1.7l-2.64,4.61A1.25,1.25,0,0,1,259.78,123.61Z"/><path class="cls-6" d="M270.5,108.14s-7.1,5.2-8.13,6.58-3.2,7.72-3.2,7.72,2.95-.65,4.16.29,4.13,3.67,4.13,3.67,4.11-4.14,5.31-6.57a27.6,27.6,0,0,0,1.83-5.11Z"/><path class="cls-6" d="M163.63,47.74s-5.22,1.36-7.2-1.49-1.16-7-1.23-8c-.27-4.1-4.49-7.22-5.08-9.65s.83-3.06,1.33-2.28c2.76,4.35,5.81,6.16,6.79,8.23s6.68,8.66,6.68,8.66Z"/><path class="cls-6" d="M160,48s-3.8-.79-5.3-2.5-1-4.66-2.05-6.25.14-1.56.48-1.53,1.62,2,2.34,2.8S161,43.4,160,48Z"/><path class="cls-12" d="M99.22,245.48A18.8,18.8,0,0,0,96.78,253c-.16,2.09,1.07,6.52,2.43,6.52a99.43,99.43,0,0,1,12.81.72c4.09.56,5.62,2.94,16.09,2.92,3.06,0,8.61-.21,8.45-1.46s-10-3.55-13.23-6.52c-8.06-7.54-13.43-9.36-13.43-9.36S99.51,245.08,99.22,245.48Z"/><rect class="cls-12" x="98.81" y="259.47" width="10.5" height="1.99"/><path class="cls-9" d="M62.21,162.65s39.41,12.88,41,14.72,12.68,71.43,12.68,71.43-2.76,2.55-9.87,3.11-9.54,0-9.54,0S85.68,207.26,86,201.35s-1.93-14.76-1.93-14.76-45.8-2.27-48.94-5C17.26,166.16,37,157.33,37,157.33l25.52,1.8Z"/><path class="cls-16" d="M68.58,103.8c2.63,5.84,7.52,5.32,12.84,2.58s29.34-20.85,29.71-24.66c.2-2-2.86-7.57-5.67-7.37S80,87,76,90,65.5,97,68.58,103.8Z"/><path class="cls-6" d="M57.62,64.42s-5.18,16.64-6.95,18.19c-3.37,3-11.64,3.91-15.12,8-4.22,4.93-1.33,31.34-1.74,40.27s-7.38,26.31-10.93,34.22S42,184.69,42.94,185s13.47-4.87,15.8-7.13,4.57-24.23,6.06-29.62,7.94-24,8.53-25.13a38.86,38.86,0,0,0,3.72-16.75c.17-1.83,1.06-4.73.49-6.09-1.13-2.7-10-8.31-9.88-9.46s3.09-17,3.09-17Z"/><rect class="cls-12" x="75.56" y="267.59" width="10.5" height="2.05"/><path class="cls-12" d="M76,253.14a19.9,19.9,0,0,0-2.44,7.72c-.16,2.16,1.07,6.73,2.43,6.73a97.83,97.83,0,0,1,12.81.74c4.09.58,5.62,3,16.09,3,3.06,0,8.61-.21,8.45-1.51s-10-3.66-13.23-6.73c-8.07-7.78-13.44-9.66-13.44-9.66S76.25,252.73,76,253.14Z"/><path class="cls-17" d="M50.67,82.61l14,14.9,3-6.73s6-2.18,8.35-.77,2.87,15.61,2.82,17.52-3.38,12.45-6,19.41c-1.57,4.08-3,9.65-5.59,16.61-2.23,6-5,19.82-5,19.82a28,28,0,0,1-15.81-.77c-10.32-3.39-21.34-5.12-21.7-5.64-1.56-2.2,5.87-15.57,6.94-24.32.23-1.88.79-35.2,1.71-39.33a8.59,8.59,0,0,1,7.24-6.91C44.09,85.71,50.67,82.61,50.67,82.61Z"/><path class="cls-16" d="M58,113.3C48.91,86.81,42.32,87,42.32,87L41,86.29l-.42.11a8.59,8.59,0,0,0-7.24,6.91c-.92,4.13-1.48,37.45-1.71,39.33-1.07,8.75-8.5,22.12-6.94,24.32.32.46,9.22,1.91,18.49,4.64l17,2.18c1.23-.2,2-.41,2-.41s2.75-13.86,5-19.82c1.44-3.86,6.27-18.26,7.22-21.24,0,0-3.62,6.25-7.48,5.41C63.75,127,63.05,127.92,58,113.3Z"/><path class="cls-8" d="M24.49,156.77s-2.77,9-1.76,16.53,2.87,15.92,20.37,17.55,28.41,2.56,29,2.62-1.33,15.05-.63,25.52,1.93,38.16,1.93,38.16a46.31,46.31,0,0,0,10.74,1.23c7,.14,9.21-2.31,9.21-2.31s4.78-65.57,3.1-71c-2.83-9.19-32.15-16.71-33.26-18.34-.91-1.35-.68-7.54-.68-7.54Z"/><path class="cls-17" d="M40.81,87.07c-6.39.7-7.63,6.39-6.43,12.87s12.18,34.89,14,35.92,13.68,2.57,14.25-.42-9-30.21-10.9-35.38S48.29,86.26,40.81,87.07Z"/><polygon class="cls-4" points="58.41 68.26 69.76 78.64 68.74 84.53 55.69 83.37 52.3 79.51 56.86 67.3 58.41 68.26"/><path class="cls-6" d="M69.35,46.83c-5-2.94-17.9-3.77-21.92,5.71s.43,16.94,4.79,21.2c3.4,3.33,6.32,4.93,11.65,6.07,1.08.23,10.33-.19,12-1.2,1.12-.7,0-10,.31-10A1.63,1.63,0,0,0,77.24,67c-.17-1.09-2.82-7.36-2.72-8.11S75.07,50.2,69.35,46.83Z"/><path class="cls-7" d="M72.75,50.32s-7.67-2.39-14.27,7.37c-1.42,2.11,3.68,8.55,3.37,9.29s-7.91-3.78-7.48-3c4.38,7.79,2.79,13,2.06,13.21-2.22.66-11.89-9.56-10.67-19.86s11-13.47,13.46-13.5S69,42.73,72.75,50.32Z"/><path class="cls-6" d="M58.76,64.93c1.41,2.48,2.61,6,1.31,6.72s-3.5-.67-4.91-3.14-1.5-5.09-.19-5.84S57.35,62.45,58.76,64.93Z"/><polygon class="cls-16" points="64.77 93.69 64.64 97.51 61.34 94.04 64.77 93.69"/><path class="cls-6" d="M102.85,82.61c4.2,5.57,13.75-2.33,18.76-7.32S138.76,54,138.76,54l-4.27-4.89s-25.19,19-26.67,20.33S98.57,77,102.85,82.61Z"/><polygon class="cls-16" points="64.64 97.51 65.98 93.82 66.92 95.83 64.64 97.51"/><polygon class="cls-18" points="24.49 156.77 23.33 160.78 62.52 163.56 62.47 159.19 24.49 156.77"/><path class="cls-19" d="M60.23,163.56H59.05a2.36,2.36,0,0,1-2.35-2.35h0a2.36,2.36,0,0,1,2.35-2.36h1.18a2.36,2.36,0,0,1,2.35,2.36h0A2.36,2.36,0,0,1,60.23,163.56Z"/><polygon class="cls-21" points="48.91 82.89 52.3 79.51 64.77 93.69 62.09 97.7 48.91 82.89"/><ellipse class="cls-21" cx="53.74" cy="131.55" rx="9.31" ry="7.93"/><path class="cls-17" d="M64,131.55c0,4.37-4.17,7.92-9.31,7.92s-9.31-3.55-9.31-7.92,4.17-7.93,9.31-7.93S64,127.17,64,131.55Z"/><path class="cls-21" d="M64,132.62c0,4.38-4.17,7.93-9.31,7.93s-9.31-3.55-9.31-7.93,4.17-7.93,9.31-7.93S64,128.24,64,132.62Z"/><polygon class="cls-21" points="65.98 93.82 68.01 88.71 69.76 91.56 67.36 97.51 65.98 93.82"/><path class="cls-22" d="M114.1,119.54l.65-1.28a.59.59,0,0,1,.8-.25h0a.59.59,0,0,1,.26.79l-.66,1.28a.59.59,0,0,1-.79.26h0A.6.6,0,0,1,114.1,119.54Z"/><path class="cls-23" d="M105.31,139.14h0c-.52-.25.21-2.8.46-3.31l7.85-16.14a1,1,0,0,1,1.38-.48h0a1,1,0,0,1,.48,1.39l-7.85,16.14C107.38,137.25,105.82,139.39,105.31,139.14Z"/><rect class="cls-22" x="112.73" y="120.98" width="2.24" height="1.05" transform="translate(60.63 -36.27) rotate(24.5)"/><path class="cls-24" d="M111.58,126.61h0a.33.33,0,0,1-.16-.44l2.53-5.41a.34.34,0,0,1,.45-.16h0a.35.35,0,0,1,.16.44L112,126.45A.33.33,0,0,1,111.58,126.61Z"/><path class="cls-6" d="M47.83,133.12c-1,6.91,13.45,7.72,20.52,7.76s30.19-1.81,30.19-1.81l-3.21-6.42S59.87,127.11,57.87,127,48.83,126.09,47.83,133.12Z"/><path class="cls-6" d="M112.1,138.36h0a1.19,1.19,0,0,0-1.14-1.2l-5-.15a1.17,1.17,0,0,0-1.21,1.14h0a1.17,1.17,0,0,0,1.14,1.2l5,.15A1.17,1.17,0,0,0,112.1,138.36Z"/><path class="cls-6" d="M112.37,136.16h0a1.17,1.17,0,0,0-1.14-1.21l-5-.15A1.18,1.18,0,0,0,105,136h0a1.18,1.18,0,0,0,1.14,1.21l5,.15A1.18,1.18,0,0,0,112.37,136.16Z"/><path class="cls-6" d="M112.51,134h0a1.18,1.18,0,0,0-1.14-1.21l-5-.15a1.18,1.18,0,0,0-1.21,1.15h0a1.18,1.18,0,0,0,1.14,1.21l5,.15A1.18,1.18,0,0,0,112.51,134Z"/><path class="cls-6" d="M112.44,131.92h0a1.17,1.17,0,0,0-1.14-1.21l-5-.15a1.19,1.19,0,0,0-1.21,1.15h0a1.19,1.19,0,0,0,1.14,1.21l5,.15A1.18,1.18,0,0,0,112.44,131.92Z"/><path class="cls-6" d="M94.67,132.92s7.7-3.15,9.32-3.3,7.82,1.23,7.82,1.23-2,2.06-1.83,3.51.91,5.14.91,5.14-5.37,1.27-7.92,1a25.51,25.51,0,0,1-5-1.05Z"/><path class="cls-6" d="M133.21,50.84s2.31-1.65,1.87-5.85a10.08,10.08,0,0,1,2.71-7.61c.45-.51,3.38-4.1,3.8-4.22,1.25-.33.82,1.19,1.18,1.06s1.68-.54,1.8.73.44,1,.88,1.19.64,1.22.39,1.76.47.78.46,1.48a3.61,3.61,0,0,1-1,2,7.3,7.3,0,0,0-1.91,5.44c0,2.61-.27,6.79-4.38,7.82S133.21,50.84,133.21,50.84Z"/><path class="cls-17" d="M97.61,77.75c0,.6,1.67,6.33,4,8.54s5.14,2.57,5.43,2.31a24.62,24.62,0,0,1,1.75-2.49c1.1-1.19,3.33-1.11,3.21-2.14s-4-2-6.13-4.82-1.54-5.3-2.06-5.59-2.1,1.65-3,2S97.48,75.39,97.61,77.75Z"/><rect class="cls-10" x="35.25" y="192.47" width="9.45" height="67.17" transform="translate(79.95 452.11) rotate(180)"/><rect class="cls-10" x="12.23" y="174.47" width="5.23" height="18.69" transform="translate(29.7 367.63) rotate(180)"/><rect class="cls-15" x="12.23" y="185.45" width="62.26" height="13.56" rx="4.88" transform="translate(86.73 384.45) rotate(180)"/><path class="cls-15" d="M3.65,97.73l1.52-.18a4.16,4.16,0,0,1,4.59,3.62l8.76,74.48a4.14,4.14,0,0,1-3.62,4.59l-1.52.18a4.14,4.14,0,0,1-4.59-3.62L0,102.32A4.14,4.14,0,0,1,3.65,97.73Z"/><path class="cls-25" d="M6.3,99.9h0a1.58,1.58,0,0,1,1.76,1.38l8.65,73.48a1.59,1.59,0,0,1-1.39,1.76h0a1.59,1.59,0,0,1-1.76-1.39L4.92,101.65A1.58,1.58,0,0,1,6.3,99.9Z"/><path class="cls-15" d="M58.77,267.46a5.5,5.5,0,1,0,5.5-5.5A5.5,5.5,0,0,0,58.77,267.46Z"/><path class="cls-15" d="M8.92,267.46a5.5,5.5,0,1,0,5.5-5.5A5.5,5.5,0,0,0,8.92,267.46Z"/><path class="cls-10" d="M7.14,264.27H72.8a4.63,4.63,0,0,0-4.62-4.63H11.77a4.64,4.64,0,0,0-4.63,4.63Z"/><rect class="cls-26" x="36.77" y="198.33" width="2.37" height="61.32" transform="translate(75.92 457.97) rotate(180)"/><rect class="cls-27" x="3.69" y="203.37" width="133.7" height="8.78" transform="translate(-137.21 278.3) rotate(-90)"/><rect class="cls-27" x="191.09" y="203.37" width="133.7" height="8.78" transform="translate(50.19 465.7) rotate(-90)"/><rect class="cls-27" x="67.38" y="143.01" width="193.49" height="19.01"/><polygon class="cls-28" points="262.18 155.88 66.15 157.77 66.15 151.46 262.18 151.53 262.18 155.88"/><rect class="cls-10" x="55.57" y="140.55" width="217.83" height="11.05"/><polygon class="cls-29" points="116.61 137.6 167.65 137.6 173.39 99.22 122.35 99.22 116.61 137.6"/><rect class="cls-29" x="96.99" y="137.6" width="19.62" height="2.94"/><polygon class="cls-30" points="122.35 99.22 167.6 137.6 116.61 137.6 122.35 99.22"/><rect class="cls-31" x="116.61" y="137.6" width="50.99" height="2.94" transform="translate(284.2 278.15) rotate(180)"/><path class="cls-16" d="M144.48,118.93c-.51,2.31.64,4.52,2.56,4.95s3.9-1.09,4.41-3.4-.63-4.52-2.55-5S145,116.63,144.48,118.93Z"/></g></g></g></svg>