<svg xmlns="http://www.w3.org/2000/svg" viewBox="0 0 350 304.38"><defs><style>.cls-1{isolation:isolate;}.cls-2,.cls-4{fill:#99a2a9;}.cls-3{fill:#303030;}.cls-4{mix-blend-mode:soft-light;}.cls-5{fill:#191919;}.cls-6{fill:#b8d1ff;}.cls-7{fill:#ffbd95;}.cls-8{fill:#88bd4f;}.cls-9{fill:#ffa47c;}.cls-10{fill:#00233f;}.cls-11{fill:#002d56;}.cls-12{fill:#cee0ff;}.cls-13{fill:#74a940;}.cls-14{fill:#eaf2ff;}.cls-15{fill:#8d3b26;}.cls-16{fill:#27547c;}.cls-17{fill:#5a5a5a;}.cls-18{fill:#d0d6d9;}.cls-19{fill:#c1c6cb;}.cls-20{fill:#757575;}.cls-21{fill:#79858e;}.cls-22{fill:#b9b9bd;mix-blend-mode:multiply;}.cls-23{fill:#ff6e26;}.cls-24{fill:#ff8626;}</style></defs><g class="cls-1"><g id="Calque_2" data-name="Calque 2"><g id="Calque_1-2" data-name="Calque 1"><rect class="cls-2" x="158.51" y="202.54" width="10.43" height="74.17"/><circle class="cls-3" cx="136.9" cy="285.34" r="6.07"/><circle class="cls-3" cx="191.94" cy="285.34" r="6.07"/><path class="cls-2" d="M200,281.82h-72.5a5.11,5.11,0,0,1,5.11-5.11h62.29a5.1,5.1,0,0,1,5.1,5.11Z"/><rect class="cls-4" x="164.64" y="209.01" width="2.62" height="67.71"/><rect class="cls-3" x="123.71" y="194.2" width="80.02" height="14.97" rx="5.81"/><path class="cls-5" d="M158.53,187.32h34a14.21,14.21,0,0,0,14.16-14.17V126.22a31.24,31.24,0,0,0-31.14-31.15h0a31.24,31.24,0,0,0-31.15,31.15v46.93A14.21,14.21,0,0,0,158.53,187.32Z"/><path class="cls-3" d="M158.09,181.89h26.46a11.08,11.08,0,0,0,11-11V124.77a24.35,24.35,0,0,0-24.27-24.28h0A24.36,24.36,0,0,0,147,124.77v46.08A11.08,11.08,0,0,0,158.09,181.89Z"/><rect class="cls-6" x="157.25" y="84.88" width="23.96" height="8.35"/><path d="M153.16,277.87l-14.37-1.44a121,121,0,0,0-12.22,9.83,10.54,10.54,0,0,0-3.26,9s12.19,3.19,17.35,0a119.83,119.83,0,0,1,12.5-6.38Z"/><path class="cls-7" d="M193,137.17c4.26-13.09,15.29-35.55,8.83-39.45-8.42-5.09-32.63-8.22-32.63-8.22v.42s-24.43,2-32.85,7.13c-6.46,3.91,4.78,27.44,9,40.54,1,3.14.91,17.23.52,29.72-.09,3.08-2.59,17.26-2.17,23.11.13,1.75,20,6.59,25.55,6.87h0c5.54-.28,25.23-5.53,25.36-7.28.42-5.86-2.08-20-2.17-23.11C192.06,154.4,192,140.31,193,137.17Z"/><path class="cls-8" d="M140.1,96.36c-4.6-1.84-9.33,3-12.61,11.66s-6.17,15.15-7,17.41-5.54,15.29-6.51,19a7.59,7.59,0,0,0,4.34,9.2c3.08,1.17,8.91-2.89,12.45-8.57S152.45,101.3,140.1,96.36Z"/><path class="cls-7" d="M179.3,85.62c-.55-2.49-1.94-14.83-1.94-14.83h-8.18v.42H161S159.62,83.54,159.07,86s-7.29,6.26-7.29,6.26h17.4v-.42h17.4S179.85,88.12,179.3,85.62Z"/><path class="cls-9" d="M178.75,82.14c-.52-3.78-1.14-9.15-1.33-10.83l-.53-.52h-7.71v.42H161S159.62,83.54,159.07,86s-7.29,6.26-7.29,6.26h.83c7.76-2.07,15.48-4.14,16.52-4.44,2.17-.62,9.62-5.72,9.62-5.72Z"/><polygon class="cls-10" points="145.32 172.39 133.21 193.4 132.51 202.48 168.21 202.48 194.92 201.64 199.83 193.4 192.97 172.39 145.32 172.39"/><path class="cls-11" d="M131.19,195.34l3.63,84h22.26l2.08-84s-3.3-11.21-14.82-11.21C134.45,184.13,131.19,195.34,131.19,195.34Z"/><path class="cls-10" d="M144.36,184.13h0c-9.89,0-13.15,11.21-13.15,11.21l3.63,84h9.54Z"/><path class="cls-8" d="M195.26,97.55c4.45-2,10.17-2.47,14,6.23s7.91,20,8.85,22.3,5.5,14.78,6.72,18.6.37,8-3.2,9.62c-3,1.31-9-2.63-12.94-8.31S183.29,103.06,195.26,97.55Z"/><path class="cls-12" d="M203.68,98c-.92-1.9-6.92-3.31-12.29-5a95.16,95.16,0,0,1-9-3.34l-13.17,7.51-13.14-7.55s-4.24,1.85-9,3.31c-5.37,1.66-11.38,3.05-12.3,4.94s8.65,38.87,9.72,42-1.72,25.11,1,31.69l23.56.77h.06l23.56-.7c2.17-7.53,0-29,1.07-32.1S204.61,100,203.68,98Z"/><polygon class="cls-6" points="168.18 92.78 169.25 97.28 161.19 94.24 165.84 92.05 168.18 92.78"/><path class="cls-8" d="M204.3,97.75c-.93-1.93-7-3.36-12.51-5.07-4.82-1.5-9.14-3.4-9.14-3.4l-13.4,46.27L155.87,89.24s-4.32,1.89-9.14,3.38c-5.48,1.68-11.59,3.09-12.53,5s8.8,39.57,9.9,42.77-1.76,25.56,1,32.26l24,.78h0l24-.71c2.21-7.67,0-29.48,1.09-32.68S205.25,99.71,204.3,97.75Z"/><path class="cls-13" d="M173.08,170.25c-2.3-1.45-5.76-2.89-7.85-4.19s-.06-5.77-.08-8.08,6.38-6.62,10.7-8.2,11.83-1,13.56-4-2.87-5.91-4.89-5.91-15-3.77-17-3.49-17.3,1.85-19.75,0S134.2,97.64,134.2,97.64c2.72,11.85,9.2,40.73,9.9,42.77,1.1,3.19-1.76,25.56,1,32.26l24,.78h0l24-.71a72.71,72.71,0,0,1-7.38-1.4C183.61,170.68,175.39,171.69,173.08,170.25Z"/><polygon class="cls-6" points="170.21 92.81 169.18 97.28 177.25 94.24 172.59 92.05 170.21 92.81"/><polygon class="cls-14" points="152.57 90.37 157.25 84.88 168.18 92.78 164.24 100.21 152.57 90.37"/><path class="cls-10" d="M185.83,167.51s10.3,10.68,13,16.88,2.7,16.74-4,17.25-12.14.51-13.57-.32-12.64-20-12.52-22.42S181.37,165.66,185.83,167.51Z"/><path d="M103.71,212.47l8.87,11.4a121,121,0,0,1-1.81,15.57,10.56,10.56,0,0,1-5.85,7.54s-9.2-8.62-9.24-14.7a118.89,118.89,0,0,0-1.26-14Z"/><path class="cls-10" d="M185.26,187.1l-73,41.65-11.87-18.86,70-46.48s11.24-3.17,17.38,6.59C193,178.36,185.26,187.1,185.26,187.1Z"/><path class="cls-11" d="M198.76,185.34c-.38-.53-12.31-17-12.71-17.46-6.3-7-15.69-4.47-15.69-4.47l-70,46.48L106.74,220s46.64-44.33,66.15-51.93C180.42,165.12,198.76,185.34,198.76,185.34Z"/><polygon class="cls-14" points="185.86 90.37 181.19 84.88 170.21 92.81 174.2 100.21 185.86 90.37"/><path class="cls-7" d="M152.59,59.29c-.36,10.43,3.6,21.12,10.25,21.91,6.35.75,18.66-7.72,19.89-18.08s-4-19.48-13.45-20.87C161.31,41.09,153,48.56,152.59,59.29Z"/><path class="cls-15" d="M154.06,51.85s9.06-4.83,18.26,3.42c2,1.78-.49,9.65,0,10.33s2.94-6.11,3.29-5.26c2.53,6.15.48,13.92,1.28,14,2.42.1,9.66-12.76,5.79-22.91s-14.58-10.92-17.13-10.31S155.9,43.17,154.06,51.85Z"/><path class="cls-7" d="M173.81,63.33c-.8,2.88-1.13,6.74.39,7.17s3.39-1.58,4.19-4.46.22-5.55-1.29-6S174.62,60.45,173.81,63.33Z"/><path class="cls-8" d="M119.17,141.36c3.86-1.16,9.24.66,12.87,10.73s7.63,29,7.63,29l-9.19,4.05s-9.48-15.53-11.7-20.91S109.07,144.37,119.17,141.36Z"/><path class="cls-7" d="M131.28,183.41s.43,2.26.53,3.28a16,16,0,0,0,2.91,8.14c1.61,2.3,5.84,6.43,6.51,6.13s.19-1.67.19-1.67,2.89,2.77,3.7,2.35.46-1.77.46-1.77,2.57,1.4,3.6.86-2.07-3.76-2.07-3.76,2.44,1.5,3.1.45-3.82-3.64-5.42-7.26c-.6-1.35-1.17-3-.82-3.28s4.18.45,5.17.12,1.69-1.83,1.53-2c-.7-.73-1.76.12-4.91-1-.69-.25-3.53-3.36-7.55-2.72A46.07,46.07,0,0,0,131.28,183.41Z"/><polygon class="cls-13" points="126.74 178.82 137.78 172.73 141.65 180.99 131.32 186.92 126.74 178.82"/><path class="cls-8" d="M225.55,148.14c-.22,4-2.62,7.12-13.92,7.07s-29.26-2.94-29.26-2.94l.18-9.49s14.13-3.91,20.27-4.15S226.14,137.72,225.55,148.14Z"/><path class="cls-7" d="M178.65,143.93c-9.82,1.93-11.55,11.2-11.42,11.94s2.09,1.49,3.94.56,9.69-4.72,9.8-7.08S180.43,143.58,178.65,143.93Z"/><path class="cls-7" d="M177,146.27a28.16,28.16,0,0,0-4.87,3.84c-.27.26-.83.51-1.09.77s-.48.74-.69,1-.48.25-.66.44-.35.8-.58,1-.69.5-.89.67c-.81.69-.3,1.21-.53,1.44a6.1,6.1,0,0,0-1,1.13c-.42.82.07,4.91.34,5.52s1,4.39,1.43,4.4,1.56-1,1.41-3.06-.21-4.65,0-4.21a17.67,17.67,0,0,0,2.47,3.33c.5.48,1.12.05,1.43-.44a7.74,7.74,0,0,0-.24-2.2s1.39.26,1.57,0c.62-.83-.13-2.14-.24-2.64s1.3.43,1.53,0c.86-1.44-2-4.41-.59-5.36C176.52,151.47,178.36,148.32,177,146.27Z"/><polygon class="cls-13" points="187.32 141.35 187.66 153.59 178.69 153.66 178.65 142.3 187.32 141.35"/><path class="cls-7" d="M36.9,96.57C32.61,83.37,21.53,60.75,28,56.8c8.43-5.15,32.68-8.33,32.68-8.33v.42s24.47,2,32.92,7.14c6.47,3.93-4.75,27.68-9,40.89-1,3.17-.89,17.37-.48,30,.1,3.11,2.63,17.39,2.21,23.3-.12,1.76-19.92,12.71-25.48,13v-.42c-5.55-.27-25.39-11.15-25.52-12.91-.43-5.91,2-20.2,2.15-23.31C37.84,113.94,37.93,99.74,36.9,96.57Z"/><path class="cls-7" d="M33.86,55.65C38.35,57.84,39,66,34.61,74.17s-8.32,13.28-9.53,15.38S17.59,104.81,15.36,108s-7.09,6.08-10.58,4.2c-2.92-1.58-6.16-2.92-4.16-9.37S19.66,48.76,33.86,55.65Z"/><path class="cls-7" d="M50.42,44.57c.55-2.52,1.93-15,1.93-15h8.24V30h8.25s1.41,12.43,2,15,7.35,6.3,7.35,6.3l-17.54,0v-.42l-17.54,0S49.86,47.08,50.42,44.57Z"/><path class="cls-9" d="M51,41.06c.51-3.81,1.13-9.24,1.32-10.92l.53-.53h7.77V30h8.25s1.41,12.43,2,15,7.35,6.3,7.35,6.3h-.83c-7.83-2.08-15.62-4.15-16.67-4.45-2.19-.62-9.7-5.75-9.7-5.75Z"/><path class="cls-7" d="M73.89,136.33c10.06,0,14,7,13.73,28.49S84.2,209.67,82.81,213s-15.65,3.45-17,1.49-5-46.59-5-53.58S62.93,136.38,73.89,136.33Z"/><rect class="cls-7" x="65.7" y="206.75" width="17.19" height="23.47" rx="7.27" transform="translate(154.16 435.01) rotate(178.53)"/><path class="cls-7" d="M74.71,217.09c3.07,0,10.62,1,10.23,21.06s-8.87,47.55-8.87,47.55H68.8s-3.6-37.14-3.63-44.26C65.11,225.24,65,217.1,74.71,217.09Z"/><path class="cls-7" d="M47.35,136.51c-10-1.08-14.63,5.49-16.6,26.92s-2.89,45-1.85,48.45,15.21,5,16.8,3.24,11.41-45.83,12.14-52.78S58.24,137.69,47.35,136.51Z"/><path class="cls-7" d="M35.45,206.45h2.69a7.26,7.26,0,0,1,7.26,7.26v9a7.24,7.24,0,0,1-7.24,7.24H35.5a7.29,7.29,0,0,1-7.29-7.29v-8.94a7.24,7.24,0,0,1,7.24-7.24Z" transform="translate(28.29 -2.92) rotate(7.37)"/><path class="cls-7" d="M36.54,216.75c-3.06-.32-10.67-.1-12.35,19.9s1.62,48.21,1.62,48.21l7.22.76S42.75,249.05,43.51,242C45.25,225.85,46.2,217.76,36.54,216.75Z"/><path class="cls-7" d="M91,56.42C86.21,58,84.44,66,87.71,74.66S94.17,89,95.08,91.19s5.36,16.13,7.13,19.62,6.21,7,9.92,5.59c3.11-1.16,6.51-2.06,5.39-8.72S106,51.5,91,56.42Z"/><path class="cls-5" d="M84.8,132s3.64,17.72,4.21,27.36-4.08,51.79-4.09,56.43.33,18.89,0,32.87-3.84,41.48-3.84,41.48l-17.89-.42s-.11-59.07-.12-68.35-2.33-58.19-2.33-58.19l0-30.39Z"/><path class="cls-16" d="M25.6,57.06c1.1-1.84,7-3.36,12.51-5.07a58.31,58.31,0,0,0,8.71-3.53l3,1.62a21.73,21.73,0,0,0,21.58,0L74,48.55a96.05,96.05,0,0,0,9.15,3.37c5.48,1.69,11.59,3.1,12.53,5s-8.8,39.58-9.9,42.78,1.76,25.58-1,32.27l-24,.79h0l-24-.71c-2.2-7.67,0-29.5-1.09-32.69S23.75,60.13,25.6,57.06Z"/><path class="cls-5" d="M37,131.51s-5.45,17.25-7,26.78-3,51.93-3.42,56.55-2.27,18.75-3.43,32.68-2.72,41.67-2.72,41.67l17.84,1.42s8.46-58.75,9.43-68,13.22-57.92,13.22-57.92l-.11-31.92Z"/><path class="cls-5" d="M79.25,290.1s6.12,7.14,5.8,9c-.19,1.07-2.76,5-7.45,5.25-3.56.22-9.37-3-10.27-3.12-2.1-.21-2.09-11.48-2.09-11.48Z"/><path class="cls-5" d="M22.87,289.4s-6.81,6.47-6.69,8.38c.07,1.09,2.24,5.22,6.87,6,3.51.59,9.63-2,10.54-2,2.1,0,3.26-11.21,3.26-11.21Z"/><path class="cls-3" d="M39,167.64c-1,6.31-3.82,48.76-4,51.17s-8.52,67.82-8.8,70.84l-5.87-.46s1.55-27.74,2.72-41.67,3-28.07,3.43-32.68,1.86-47,3.42-56.55,7-26.78,7-26.78l14.18,1S40.05,161.32,39,167.64Z"/><path class="cls-3" d="M63.59,151.43a6.85,6.85,0,0,1,12.77,2.82c.59,6.88.74,11.65.14,14.82-1.52,8-3.68,47-3.39,48s.09,72.67.09,72.67l-.32.19-9.64-.23s-.11-59.07-.12-68.36-2.33-58.18-2.33-58.18v-2.66l-.19-3.83Z"/><path class="cls-16" d="M95.65,56.18s6.27,1.48,11.65,12.67,10.11,34.34,10.11,34.34a27.64,27.64,0,0,1-9.47,4.68c-6.21,1.88-8.9,1.38-8.9,1.38L91,85.43S87.93,57,95.65,56.18Z"/><path class="cls-16" d="M29.62,54.69s-6.4.82-12.92,11.38S1.07,98.85,1.07,98.85A27,27,0,0,0,10,104.49c6,2.52,8.87,2.45,8.87,2.45L31.23,84.27S37.21,56.29,29.62,54.69Z"/><path class="cls-7" d="M79.74,21.75c-1.9,10.41-8.15,20.15-14.9,19.49C58.38,40.62,48,29.55,49,19S57.19.56,66.88,1.24C75,1.81,81.7,11,79.74,21.75Z"/><path class="cls-15" d="M79.89,14s-8-6.74-18.85-.55c-2.34,1.34-1.6,9.67-2.24,10.23S57.21,17,56.67,17.8c-3.83,5.55-3.48,13.7-4.28,13.56-2.43-.42-6.82-14.73-.78-24S68.42-.27,70.81.88,79.94,5,79.89,14Z"/><path class="cls-7" d="M57.82,21.15c.17,3-.34,6.94-1.93,7s-3-2.3-3.19-5.32,1-5.56,2.57-5.65S57.65,18.12,57.82,21.15Z"/><path class="cls-11" d="M55.45,125.67c-3.28-5.46,5.87-14.19,9.9-15.72s11.59-.71,12.64-3.88c1.9-5.72-18.53-9.36-20.41-9.09s-16.13,1.79-18.41,0-13.59-35.9-13.59-35.9c2.53,11.44,9.53,37.87,10.18,39.83,1,3.09-1.64,24.7,1,31.17l22.36.76h0l22.36-.68S57.61,129.27,55.45,125.67Z"/><path class="cls-9" d="M117.14,109.3c-1.23-3.86-3.15-6.7-8.11-5.41s-15.48,7.54-15.48,7.54l2,6.26s11.31,2.51,14.08,2.07S120.38,119.43,117.14,109.3Z"/><path class="cls-7" d="M.25,107.28c-.48-4,1.25-7.6,12.46-9.53s37.79-3,37.79-3l.77,6.52s-21.34,9-27.38,10.35S1.5,117.84.25,107.28Z"/><path class="cls-7" d="M45.17,102.07s5.9,2.65,7.78,2.93,8.76-.59,10.28-.54c2.54.07,8.12,5.14,8.4,3.45s-4.82-8.64-4.82-8.64-7.14-5.52-10.16-5.41-8.57,1-8.57,1Z"/><path class="cls-9" d="M104.56,110.43s-6.31-1.43-8.21-1.34-8.47,2.3-10,2.56c-2.5.43-10.56-.39-10.5,1.32s8.93,4.9,8.93,4.9a37,37,0,0,0,9.89,1c3-.19,8.44-.77,8.44-.77Z"/><polygon class="cls-17" points="54.25 107.97 99.15 108.1 125.47 110.86 74.4 110.86 54.25 107.97"/><polygon class="cls-18" points="74.4 110.86 126.83 110.86 132.73 71.43 80.3 71.43 74.4 110.86"/><polygon class="cls-19" points="74.4 113.88 54.25 110.99 54.25 107.97 74.4 110.86 74.4 113.88"/><rect class="cls-20" x="74.4" y="110.86" width="52.38" height="3.02" transform="translate(201.18 224.74) rotate(180)"/><polygon class="cls-19" points="80.3 71.43 126.78 110.86 74.4 110.86 80.3 71.43"/><path class="cls-9" d="M94,116.86s-5.65-1.6-5.82-2.65-6.07-4.16-6.31-4.8,2.65-1.2,4.78-.32a9.6,9.6,0,0,0,4.28.71c.8,0,4.14-1.31,6.83,0a4.67,4.67,0,0,1,2.84,4.57C100.46,115.34,95.7,118.42,94,116.86Z"/><rect class="cls-21" x="137.37" y="221.57" width="135.06" height="7.42" transform="translate(-20.38 430.18) rotate(-90)"/><rect class="cls-21" x="267.45" y="222.22" width="135.06" height="7.42" transform="translate(109.05 560.91) rotate(-90)"/><rect class="cls-21" x="202.67" y="157.75" width="134.41" height="19.68"/><polygon class="cls-22" points="338.69 171.08 201.16 173.04 201.16 166.5 338.69 166.57 338.69 171.08"/><rect class="cls-2" x="192.5" y="154.84" width="155.11" height="12.19"/><polygon class="cls-23" points="250.78 91.61 244.95 154.84 260.23 155.21 266.91 82.74 250.78 91.61"/><path class="cls-23" d="M271.58,61.17c3.43,2.71,1.95,8.76-3,13.94s-36.35,26.4-38.66,26.2-7.2-3.6-6-6.7,24.88-24.93,29.7-28.48S267.1,57.65,271.58,61.17Z"/><path class="cls-7" d="M229,102.48c-4.2-.51-8.7-10.74-11.23-18.31s-7.73-30.88-7.73-30.88l6.51-1.78s17,38,17.83,40.13S236.26,103.37,229,102.48Z"/><path class="cls-16" d="M292.13,140a47,47,0,0,1,.85,11.9c-.73,9.8-33.86,12.72-35,12.47s-11.92-11.94-13-15.45c-.63-2,3.72-9.84,6.46-18C265.56,134.18,278,136.75,292.13,140Z"/><path class="cls-9" d="M228.15,277.66c1.18,2.48,1.73,8.77,1.51,10.5-.26,2.09-2.51,4.36-3.74,4.56-3.37.56-6.42-.53-10-.64s-10.18,1.41-15.11,1.08c-2.15-.14-7.11-1-6.74-2.18s7.15-2.88,10.72-4.33A100.85,100.85,0,0,0,220.07,279S228,277.24,228.15,277.66Z"/><path class="cls-11" d="M264.35,141.92c5.31,6.31,9.69,19.36-.08,32.49-9.27,12.46-22.73,34.55-24.4,35s-13.17-4.37-14.3-6.17,20.07-57.91,21.34-60.83C249.21,137.08,258.3,134.72,264.35,141.92Z"/><path class="cls-11" d="M240.31,204.74c5.77,7.69,2.88,28,1.49,34.65s-13,37.53-13,40-8.58.95-8.78-.4,4.59-51.11,4.57-54.71.59-19.89.81-21.47C226.6,194.66,237,200.35,240.31,204.74Z"/><path class="cls-9" d="M273.24,61.67c-2.95-.15-2.72-3.56-2.58-6.41a.8.8,0,0,0,.22-.34c.25-1.29.68-18.11.68-18.11L289,31.34s-1.88,17-1.18,20.2C283.42,56.11,279.67,62,273.24,61.67Z"/><path class="cls-12" d="M256.48,116.59c1.16-8.25-2.05-19.18-3-20.34s-4.29-6.22-4.1-10.33c.29-6,6.74-14,7.21-16s-.16-5,.94-6.29c2-2.34,11.55-6.73,13.1-8.38,1.53,2.16,12.76.85,17.2-3.72a.91.91,0,0,0,.19.46c3.64,3.35,14.68,6.79,17,12.42,2.81,6.82-12.38,22.5-13.2,46.19-.25,7.16-.16,20.13.29,29.39-14.45-.69-26.51-5.06-40.66-9.08A42.66,42.66,0,0,0,256.48,116.59Z"/><path class="cls-16" d="M292.57,147.35c2.88,10.93-10.13,23.88-21.18,36-14.9,16.27-26.37,29.87-28.08,30.08s-10.9-5.51-11.78-7.44,19.53-42.07,27-55.71C269.9,129.54,287.77,129.06,292.57,147.35Z"/><path class="cls-7" d="M206.24,278.64c.29,2.32,2.42,5.87,2.53,7.61a4.84,4.84,0,0,1-2.56,4.49c-3.22,1.17-4.43,1-9.85,2.31-3.45.84-12.4,3.86-15,3.42s-8.12-1.73-8-3,7.44-2.06,10.68-4.14c8.34-5.38,15.28-13.82,15.28-13.82S206.18,278.18,206.24,278.64Z"/><path class="cls-16" d="M244.45,213.3c2.62,9.26-7.41,27.2-11.08,32.86s-25.6,30.35-26.48,32.64-8.35-2.2-8.06-3.54,22.69-46,24-49.38,7.74-18.37,8.51-19.77C235.32,198.93,243,208,244.45,213.3Z"/><path class="cls-5" d="M229.64,283.69a23.78,23.78,0,0,1,0,4.47c-.26,2.09-2.51,4.36-3.74,4.56-3.37.56-6.16-.05-9.71-.16s-11.06.85-13.68.86-9.47-1.27-9.1-2.48,7.83-2.84,11.4-4.29c0,0,3.1,1.85,5,1.76S229.47,283.74,229.64,283.69Z"/><path class="cls-7" d="M262.51,14c3.81-4.55,16-9.79,23.12-2s5.4,16.5,2.66,22.11c-2.14,4.38-4.41,6.94-9.16,9.86-1,.6-10,3.37-12,3-1.32-.29-3.37-9.65-3.74-9.57a1.71,1.71,0,0,1-1.6-1.12c-.2-1.11.2-8.07-.15-8.76S258.14,19.24,262.51,14Z"/><path class="cls-3" d="M207.24,281.83a18.8,18.8,0,0,1,1.53,4.42,4.84,4.84,0,0,1-2.56,4.49c-3.22,1.17-4.43,1-9.85,2.31-3.45.84-12.4,3.86-15,3.42s-8.12-1.73-8-3,7.44-2.06,10.68-4.14l3,1.45Z"/><path class="cls-15" d="M260.64,17.65S271,21,274,21.42s5.89,6.13,6.63,7.55,8,4.46,8,4.46A15,15,0,0,0,291,18.11c-3.51-9-11-11.79-17.88-10.91S260.23,10.24,260.64,17.65Z"/><path class="cls-6" d="M250.78,91.61c3.77,1.93,6.71,2.51,10.86,3.19,15.29,2.51,18.05-6.1,21.44-9.38,4-3.9,7.19-19.22,7.19-19.22L304,72s-11.06,22.44-11.7,33.77c-.37,6.45-.13,34.23-.13,34.23s-12.73-.72-22.48-4c-3.46-1.15,2.76-9.35,2.45-16.18s-16.21-19.13-17.23-20.46S250.78,91.61,250.78,91.61Z"/><path class="cls-7" d="M277.69,28.9c.58,2.53,2.17,4.32,3.54,4s2-2.62,1.44-5.15-2.16-4.33-3.53-4S277.12,26.37,277.69,28.9Z"/><path class="cls-7" d="M217.83,49.17s-1.69-6.25-2.76-7.29-6.4-10-7-8.82c-.73,1.39,3.29,8.88,3.05,9s-4.38,2.18-5.59,3.59S210.27,55,210.27,55l6.25.67Z"/><path class="cls-24" d="M291.28,51.54a17.46,17.46,0,0,0-8.4,13.72c-.9,9.86,7.48,68.43,7.79,79.2s.61,16.48.61,16.48L304,155.21s-1.16-93.91-3-97.35S291.28,51.54,291.28,51.54Z"/><path class="cls-24" d="M266.91,57.71,254.22,74.3l1.84-9.83S262.34,58,266.91,57.71Z"/><path class="cls-7" d="M314.81,110.7c1,2,16.31,41.29,16.31,41.29l-6.67,1.72s-12.3-19-16.14-26.09-7.56-17.63-4.89-21C308,100.73,313.82,108.66,314.81,110.7Z"/><path class="cls-24" d="M295.5,57.16c3.95-1.87,8.72,2.14,11.15,8.89s7.49,44.29,6.29,46.27-7.23,3.42-9.46.94S293,81.33,292,75.43,290.36,59.6,295.5,57.16Z"/><path class="cls-24" d="M315.75,109h0a3.66,3.66,0,0,1-2.43,4.55l-7.67,2.34a3.66,3.66,0,0,1-4.55-2.43h0a3.66,3.66,0,0,1,2.43-4.55l7.66-2.33A3.67,3.67,0,0,1,315.75,109Z"/><path class="cls-7" d="M322.71,151c1.74,2.72,3.61,6.76,7.34,7.25,2.18.29,6.41-1.06,8.67-1.11s3.58.54,3.77.28c.89-1.21-1.1-2.19-1.1-2.19s3-.39,4.87,1.1c1.68,1.33,2.72,2.42,3.62,2s-3.77-5.28-5.42-5.72-15.72-3-15.72-3Z"/><path class="cls-15" d="M283.77,25s-.67-9.41,6.78-9.34S303.71,23.81,303.62,28c-.23,11.65-9.44,19.94-9.81,20.82-2.14,5.06,6.36,7.4,4.46,8.41s-12.87.78-15.44-5.88S288.59,33,288.59,33Z"/></g></g></g></svg>