<svg xmlns="http://www.w3.org/2000/svg" viewBox="0 0 300 275.91"><defs><style>.cls-1{isolation:isolate;}.cls-2{fill:#606e79;}.cls-3{fill:#561d10;}.cls-4{fill:#ffa47c;}.cls-5{fill:#4f2718;}.cls-6{fill:#8d3b26;}.cls-7{fill:#ffbd95;}.cls-8{fill:#002d56;}.cls-9{fill:#00233f;}.cls-10{fill:#99a2a9;}.cls-11{fill:#191919;}.cls-12{fill:#303030;}.cls-13{fill:#cee0ff;}.cls-14{fill:#27547c;}.cls-15{fill:#b8d1ff;}.cls-16{fill:#7e0000;}.cls-17{fill:#e0f2ff;}.cls-18{fill:#5b0000;}.cls-19{fill:#74a940;}.cls-20{fill:#88bd4f;}.cls-21{fill:#3b1b1d;}.cls-22{fill:#722c1d;}.cls-23{fill:#90a4a2;}.cls-24{fill:#4b5b60;}.cls-25{fill:#c9dad8;}.cls-26{fill:#79858e;}.cls-27{fill:#b9b9bd;mix-blend-mode:multiply;}.cls-28{fill:#0e3854;}.cls-29{fill:#b5ccf9;}</style></defs><g class="cls-1"><g id="Calque_2" data-name="Calque 2"><g id="Calque_1-2" data-name="Calque 1"><polygon class="cls-2" points="136.74 99.89 99.2 140.95 104.15 57.35 134.88 48.24 136.74 99.89"/><path class="cls-3" d="M135.94,39.93s-3.56-2.61-11.34-3.45-11.74.52-11.74.52l-1-12.64,2.94-12.27,18,3.1,3.16,13.33Z"/><path class="cls-4" d="M113.71,226.37c-.12,2.29-1.54,4.38-2.11,5.51-.69,1.37-.52,3.66.14,4.28,1.82,1.7,3.91,1.08,6.1,2.45s5.5,6.28,7.36,6.73,6.07.26,6.33-.62-4.17-4.12-4.17-4.12c-6.64-8.16-7.39-12.4-7.39-12.4S113.73,226,113.71,226.37Z"/><path class="cls-5" d="M127.36,240.6s1.27,1.07,1.07,1.4-2.2.29-2.7,0A52.56,52.56,0,0,1,114,233.32a6.86,6.86,0,0,1-1.46-3.32c-.38,0-2,2.57-1.56,4.49a5.9,5.9,0,0,0,.77,1.67c1,1,4.49,2.62,5.45,3.22,2.19,1.36,5.24,6.29,7.09,6.74s8.12.34,8.38-.54C132.87,244.88,129.44,242,127.36,240.6Z"/><path class="cls-5" d="M110.92,234.14s1.32,3.53,1.71,4.72a39.55,39.55,0,0,1,1,5.64l.81-.06s-1.07-7.24,2.76-5.06C118.39,240.05,110.92,234.14,110.92,234.14Z"/><path class="cls-4" d="M129.58,174.74c-6.21,3.22-11,15.09-12.15,19.84s-3.35,31.62-4,33.3,6.17,1.69,6.41.72c2.4-9.6,12.67-33.76,13.81-36.11s5.91-13.22,6.26-14.32C141.75,172.47,133.13,172.9,129.58,174.74Z"/><path class="cls-4" d="M165.88,130a20.29,20.29,0,0,1,0,3.23,13.94,13.94,0,0,1-.9,2.07,2.5,2.5,0,0,0,0,1.8c.46.37,1.05-.45,1.28-1a14.58,14.58,0,0,0,.94-2.42,13.63,13.63,0,0,0,.52-3.19C167.58,130,165.88,130,165.88,130Z"/><path class="cls-4" d="M166,129.18a18.56,18.56,0,0,1-.84,2.89c-.32.52-.74.58-1.35,1s-1.08,1-1,1.57,1,.07,1.42-.16a5,5,0,0,0,1.89-1.64,12.91,12.91,0,0,0,1.33-2.7C167.54,129.61,166,129.18,166,129.18Z"/><path class="cls-4" d="M165.92,128.82a15.81,15.81,0,0,1-1.12,2.27c-.34.38-.7.37-1.27.64s-1.05.69-1,1.16.78.2,1.2.08a4.29,4.29,0,0,0,1.82-1.07,10.59,10.59,0,0,0,1.5-2C167.13,129.41,165.92,128.82,165.92,128.82Z"/><path class="cls-4" d="M160.57,134.58c.22.3,1-.17,1.49-.8a4.73,4.73,0,0,0,.42-3c-.17-.78-.07-2,.51-2.07a4.81,4.81,0,0,1,3,1.46c.53,1,1.42,2.36,1.42,3.12a11.68,11.68,0,0,1-.75,2.86,5.09,5.09,0,0,0-.44,2.08.77.77,0,0,0,.68.69c.29.07.44-1.06,1-1.93a24.62,24.62,0,0,0,1.63-3.29c.05-.19-.47-3.44-.68-4.41s-3.36-5-3.32-5.36-3.07-7.13-3.07-7.13l-5.37,1.35s3,4.7,3,5.57a16.86,16.86,0,0,1-.41,2.94c-.28,1.68.59,3.73.81,4.54C160.84,132.57,160.21,134.13,160.57,134.58Z"/><path class="cls-6" d="M106.83,223.66s.44,3.25-.42,5.11-4,5.73-5.57,5.3-3.17-4.73-3.36-5.41c-1.15-4.23,1.45-11,1.45-11Z"/><path class="cls-4" d="M137.31,50c3.29-.43,7,9.43,8.19,20.3,2.05,18.9,5.48,24.74-.27,26C140,97.5,138.84,89.84,134.93,74,131.87,61.59,130.5,50.88,137.31,50Z"/><path class="cls-7" d="M94.29,45.17c1.69-2.52,9.75-2.58,12.78-2.93s11.82.87,11.82.87,8.63,1.83,11.41,3.23,10.28,4.17,11,7.12c1.1,4.45-15.64,25.05-10,39.55,1.86,4.81,12.78,17.53,12.83,22.7,0,6.3-18.56,15.21-18.56,15.21l-1.15.3-1.15.31s-20.58,1.6-23.68-3.89c-2.54-4.49,2.58-26.88,1.94-33.08C99.87,78.63,91.73,49,94.29,45.17Z"/><path class="cls-4" d="M144.12,116.82c2.62,4,3.09,11.57,2.7,21.48-.54,13.5-5.13,33.53-5.53,35.47-1.82,8.86-10.45,9.15-12.28,2.36-.5-1.87-5-39.86-4.81-44.17s0-12.19,2.75-17.18C129,111.07,140.22,110.83,144.12,116.82Z"/><path class="cls-7" d="M113.4,37.55c1.28-2.13,2.72-10.77,2.72-10.77l5.48,1,5.49,1s-1.61,8.61-1.14,11,4.35,6.58,4.35,6.58l-11.62-2.05-11.61-2S112.12,39.68,113.4,37.55Z"/><path class="cls-4" d="M143.42,88.67c2.86-1,8.43,2.36,12.24,11.28,4.38,10.28,10.89,24.91,8.46,26.07-1.14.55-2.65-.37-3.73-2.55-2.26-4.58-8.32-11.09-12.67-17C141,97.49,137.92,90.64,143.42,88.67Z"/><path class="cls-4" d="M113.4,37.55S115,32.63,115,32.62c.37-1.6.68-3.21.89-4.34h0l5.27-.61.48.08,5.49,1s-1.61,8.61-1.14,11,4.35,6.58,4.35,6.58-7.2-3.2-8.53-4S113.4,37.55,113.4,37.55Z"/><path class="cls-7" d="M134.57,22.89c-1.52,8.62-10.15,14.3-14.55,13.52s-8.84-8.83-8.12-17.68,6.9-13.39,13.42-12.24S136.1,14.28,134.57,22.89Z"/><path class="cls-6" d="M118.68,12.37c.9,2.44,3.27,4,8.53,4.46,3.76.37,6.1,5.63,6,7.7,0,.79,2.71,15.4,2.71,15.4s4.5-18.46-2.57-28.54-16-4.59-16.13-3.82S118.24,11.2,118.68,12.37Z"/><path class="cls-6" d="M120.87,10.39s-.05,3.68-3.16,4.29C111.83,15.85,112.86,37,112.86,37s-6.33-26.49,4.38-29.43C123.36,5.9,120.87,10.39,120.87,10.39Z"/><path class="cls-7" d="M107.8,214.74s-.84,9.36-1.25,10.34-3,4.33-4.41,3.76c-3.88-1.59-4.09-9.63-2.94-11.9.67-1.33,1.31-2.75,1.82-3.66a15.14,15.14,0,0,1,2.57-3.53Z"/><path class="cls-7" d="M130.81,169.7c3.66,3.29,3.83,6.4-1.5,15.41s-21.72,31.76-22.82,31-5.27-4.08-3.14-6.7c1.45-1.77,1.69-5.16,3.64-10.38,3.36-9,7.86-20.27,9-22.13C117.68,174,125,164.43,130.81,169.7Z"/><path class="cls-7" d="M99.1,122.46c-1,4.68,1.17,11.92,5,21.06,5.24,12.45,16.57,29.59,17.63,31.27,4.81,7.66,13,4.9,12.32-2.1-.18-1.93-9.35-39.07-11-43.05s-4.31-11.41-8.61-15.12C111.26,111.76,100.65,115.48,99.1,122.46Z"/><path class="cls-8" d="M134.88,48.24l0,20.72s-4.83,14.26-3,21.29,9.59,15,14,24.8,0,41.69,0,41.69-11.86,3.79-15.58-.08-9.48-2.56-11.62-1-7.52,6.86-7.52,6.86-10.77-17.35-13-33.57c-1.82-13,3-29.22,2.07-35.82s-4.88-33.23-4.88-33.23,5.59.56,11.68.86c1.83.08-3.58-17.1-1.8-17.08,4.34,0,5.81,18.66,16.66,16.21,8.07-1.82,7.88-14.21,7.88-14.21Z"/><path class="cls-9" d="M104.2,74.69c2.38-1.59,17.22,3.36,23.1,2.17,4.68-.94,6.67-5.36,7.29-7.13-1,3-4.32,14.46-2.74,20.52,1.84,7,9.59,15,14,24.8s0,41.69,0,41.69-11.86,3.79-15.58-.08c-.07-.07-.14-.11-.21-.18l-6.73-19.86s10.92,3.17,10.75-6.33-9.53-30.87-12.26-36.41S101.83,76.27,104.2,74.69Z"/><path class="cls-10" d="M107.07,42.24A105,105,0,0,1,111,56c1,5.61-9.06,51.28-10.73,60.77S99.2,141,99.2,141l-5.65-5.5s3.94-24.61,3.85-38.14-5.54-46.62-4.5-51S107.07,42.24,107.07,42.24Z"/><path class="cls-10" d="M131.32,46.34s2.68,21.13,2.36,26.48,3.06,27.06,3.06,27.06,5.64-43.34,5.12-46.12C141.14,49.92,131.32,46.34,131.32,46.34Z"/><path class="cls-4" d="M96.51,44.06c-3.29-.42-7,9.44-8.19,20.31-2,18.89-5.48,24.74.27,26,5.22,1.17,6.39-6.49,10.3-22.34C102,55.66,103.32,45,96.51,44.06Z"/><path class="cls-7" d="M87.56,83.65c2.51-1.71,8.75.15,14.68,7.83,6.83,8.85,16.82,21.36,14.76,23.1-1,.81-2.65.31-4.25-1.53-3.34-3.86-10.85-8.63-16.53-13.21C87.45,92.79,82.72,86.94,87.56,83.65Z"/><path class="cls-7" d="M127.69,110.44c0-.57-10.14-4.22-16,.5-1.06.86,2.19,3.65,3.85,4.27a3.29,3.29,0,0,0,3.37-.63C123.45,110.38,127.47,112.53,127.69,110.44Z"/><path class="cls-7" d="M115.91,110.82a21.19,21.19,0,0,1,4.58-.94c.28,0,.7-.23,1-.26s.66.09.88.07.38-.15.58-.17.63.19.88.17.62-.15.82-.19c.79-.13.84.42,1.09.4a5,5,0,0,1,1.12,0c.68.16,2.8,2.42,3,2.88s2,2.72,1.84,2.95-1.31.44-2.45-.67a12.57,12.57,0,0,0-2.41-2.07,13.25,13.25,0,0,1,.73,3c0,.52-.52.66-1,.6-.26,0-1.16-1.2-1.16-1.2s-.52.93-.74.91c-.78,0-1.17-1.11-1.41-1.41s-.38,1-.72.9c-1.25-.21-1.57-3.29-2.8-2.95C119.16,113.05,116.46,112.58,115.91,110.82Z"/><path class="cls-6" d="M199.41,8.86S203.53,3,208,6.48s4.19,11,2,13.38-5.94,12.7-5.21,12.86-.22,1.91-1.86,1.62-6.21-2.28-4.57-7.42a16.35,16.35,0,0,0,.37-9.17Z"/><path class="cls-4" d="M194.89,224.58a12.17,12.17,0,0,0,2.16,5.25c.86,1.46.83,4,.15,4.73-1.88,2-4.23,1.47-6.55,3.13S185,245,183,245.64s-6.67.72-7-.23,4.29-4.84,4.29-4.84c6.74-9.47,7.26-13.76,7.26-13.76S194.85,224.21,194.89,224.58Z"/><path class="cls-11" d="M180.3,240.57s-1.31,1.27-1.07,1.61c.35.51,2.45.17,3-.14,4.78-2.82,11-8.68,12.3-10.45a7.56,7.56,0,0,0,1.37-3.76c.43,0,2.34,2.69,2.05,4.83a6.73,6.73,0,0,1-.73,1.9c-1.06,1.13-4.77,3.2-5.78,3.93-2.31,1.66-5.32,7.31-7.32,7.94s-8.93,1-9.28,0C174.54,245.68,178.12,242.3,180.3,240.57Z"/><path class="cls-11" d="M198,232.28s-1.19,4-1.54,5.32a43,43,0,0,0-.68,6.27h-.9s.66-8.05-3.41-5.38C190.15,239.32,198,232.28,198,232.28Z"/><path class="cls-4" d="M194.73,166.81c5.52,5.4,6.71,19.47,6.41,24.88s-6.72,33.8-6.42,35.76-7.22.46-7.16-.64c.58-10.91-2.44-39.74-2.89-42.59s-1.95-15.86-2-17.14C182.62,160.47,191.58,163.72,194.73,166.81Z"/><path class="cls-12" d="M228.74,235.56s2.85,6.82,2.81,8.66-.9,6.19-2.31,6.38-4.92-3.08-5.32-3.57c-2.47-3.06-2.54-9.22-2.54-9.22Z"/><path class="cls-7" d="M227.27,231.7A40.26,40.26,0,0,1,230,241c.11.95-.58,4.8-1.93,4.83-3.77.1-6.85-6.44-6.73-8.73s.21-4.76.21-4.76Z"/><path class="cls-7" d="M213.19,166c-4.94.95-6.2,4.4-3.77,18.93,1.85,11,8.75,35.95,12,47.41,1,3.65.67,6.09,1,6.09,1.41,0,5.62-.11,6-3.37.09-.71-1.52-3.12-1.52-5.08-.05-11.35-.12-40.08-.79-44.1C225.39,181.19,221.1,164.49,213.19,166Z"/><path class="cls-13" d="M180.43,42.45c-3.14-1.06-8.7,7.88-12,18.3-5.66,18.1-11.23,21.08-5.08,24.39,7.64,4.1,7.82-4,14.72-18.74C183.51,54.86,186.93,44.63,180.43,42.45Z"/><path class="cls-4" d="M177.2,113.75c-2.31,4.2-2.2,11.76-1,21.59,1.56,13.4,5.95,34.75,6.5,36.65,2.48,8.68,11,8.32,12.34,1.42.36-1.9,3.29-40.42,2.81-44.7s-2.81-12.13-5.91-16.89C189.59,108.28,180.63,107.5,177.2,113.75Z"/><path class="cls-7" d="M216.35,114.06c3.08,3.66,4.46,11.09,5.27,21,1.11,13.44.58,33.67.43,35.64-.73,9-10.83,10.51-13.47,4-.73-1.8-9.76-38.9-10.14-43.19s-1.45-12.08.65-17.35C200.65,110.2,211.75,108.6,216.35,114.06Z"/><path class="cls-14" d="M178.55,107.54c-1.55,4-2.74,7.81-2.2,9.9,1.58,6.1,19.59,11.27,19.59,11.27h1.19V108.94C190.19,108.94,185.49,107.54,178.55,107.54Z"/><path class="cls-13" d="M219.4,47.23c-1.23-2.77-7.59-4-10.5-4.87s-11.77-1.19-11.77-1.19-13.93,1.4-16.94,1.28c-1.27,0-2.21,4.55-2.7,5.86-2.76,7.35-6,15.9.87,21.86,1.57,1.36,2.95,16.87,2.95,24a38.63,38.63,0,0,1-2.76,13.32c6.94,0,11.64,1.4,18.58,1.4h20.81c-2.14-5.6-4.46-11.78-5-14.72C208.9,72.12,221.26,51.41,219.4,47.23Z"/><path class="cls-14" d="M197.13,108.94v19.77h1.19s20.24-3.77,21.82-9.87c.54-2.1-.65-5.86-2.2-9.9Z"/><path class="cls-7" d="M203.49,36.66c-.89-2.32-.8-11.07-.8-11.07H191.57s.09,8.75-.81,11.07-4.43,5.12-4.43,5.12l8.18,3.79,11.8-4.4A17.82,17.82,0,0,1,203.49,36.66Z"/><path class="cls-4" d="M202.74,29.92c-.07-2.33-.05-4.33-.05-4.33H191.57s.09,8.75-.81,11.07-5.41,5.7-5.41,5.7l17.39-12.44Z"/><path class="cls-7" d="M206.91,22.09c-2.54,8.35-11.77,13-16,11.65s-7.7-9.8-5.93-18.49S193.38,2.81,199.7,4.73,209.45,13.73,206.91,22.09Z"/><path class="cls-6" d="M192.42,9.76c.6,2.52,2.77,4.3,7.92,5.44,3.68.82,5.37,6.31,5,8.35-.12.78-1.54,4.42-1.54,4.42s9.06-6.6,3.25-17.43-15.34-6.46-15.52-5.71S192.13,8.54,192.42,9.76Z"/><path class="cls-6" d="M194.82,8.06s-.49,3.58-3.64,3.88a16.91,16.91,0,0,0-6.44,2.43s.58-8.57,6.83-9.54S194.82,8.06,194.82,8.06Z"/><path class="cls-15" d="M203,72.11c-1.84-.86-5.88-.49-15.4-1s-10.85-5.3-12.26-7.4-.08-8.87,0-9.25c-1.64,5.62-2,11.34,3,15.69,1.57,1.36,2.95,16.87,2.95,24a38.63,38.63,0,0,1-2.76,13.32,98.07,98.07,0,0,1,11.64,1,46.11,46.11,0,0,1-1.23-7.9c0-10.35,20.54-3.16,22.82-7.59s-8-15.24-6.92-16.72S204.86,73,203,72.11Z"/><polygon class="cls-15" points="193.52 42.66 194.51 45.57 189.29 43.4 193.52 42.66"/><polygon class="cls-15" points="194.51 45.57 195.58 42.66 198.67 44.11 194.51 45.57"/><path class="cls-16" d="M178.55,107.54s-3,5.06-3.66,14.32,6,51.79,6,51.79l18.37,1,24.34-1.9s-.57-38.88-1.67-50.49-4.41-14.48-4.41-14.48l-22.09.89Z"/><polygon class="cls-17" points="195.58 42.66 198.94 47.69 208.9 42.36 205.3 37.62 195.58 42.66"/><polygon class="cls-17" points="183.88 42.36 188.31 38.35 193.52 42.66 189.77 47.26 183.88 42.36"/><path class="cls-18" d="M194.42,147c-1.3,1.48-.72,13.09-2.71,15.34-2.13,2.41-5.24,2-7.05-2s-6.56-32.87-2.72-43c2.72-7.13,8.25-8.79,8.25-8.79l-.7-.21-10.94-.76s-3,5.06-3.66,14.32,6,51.79,6,51.79l18.37,1,3.92-.22s-4.33-.9-5-4.91C196.83,161.54,195.53,145.68,194.42,147Z"/><path class="cls-13" d="M217,45.13c3.73.44,5.27,10.83,3.73,21.51-2.67,18.58-.41,25-7.07,24.79-6-.23-5.34-7.85-5.51-24C208,54.8,209.3,44.21,217,45.13Z"/><rect class="cls-8" x="176.21" y="53.6" width="27.88" height="37.18" transform="translate(-1.1 2.96) rotate(-0.89)"/><path class="cls-9" d="M180.45,53.94s1.72,12.83,6.54,18.73,17.18,7.7,17.18,7.7l.21,10.19L176.5,91l-.57-37.17Z"/><path class="cls-7" d="M170,83.73c2-2.32.24-7.3-6.9-13.21-8.23-6.82-19.85-16.8-21.54-14.65-2.3,2.94,7.11,12.27,13.52,21S165.81,88.54,170,83.73Z"/><path class="cls-7" d="M218.39,88.16c.79-2.86-4.83-7.78-13.38-10.11-9.86-2.69-23.94-6.78-24.52-4.2-.8,3.52,11.09,8,20.15,13S216.76,94.08,218.39,88.16Z"/><path class="cls-7" d="M173.85,74.22h0a.88.88,0,0,1,1.07-.61l3.59,1a.87.87,0,0,1,.61,1.07h0a.87.87,0,0,1-1.06.61l-3.59-1A.87.87,0,0,1,173.85,74.22Z"/><path class="cls-7" d="M174.13,72.61h0A.88.88,0,0,1,175.2,72l3.58,1a.86.86,0,0,1,.61,1.07h0a.87.87,0,0,1-1.06.61l-3.59-1A.87.87,0,0,1,174.13,72.61Z"/><path class="cls-7" d="M174.5,71.06h0a.88.88,0,0,1,1.07-.61l3.58,1a.87.87,0,0,1,.61,1.07h0a.88.88,0,0,1-1.07.61l-3.58-1A.86.86,0,0,1,174.5,71.06Z"/><path class="cls-7" d="M175,69.6h0a.88.88,0,0,1,1.07-.61l3.59,1a.87.87,0,0,1,.61,1.07h0a.87.87,0,0,1-1.06.61l-3.59-1A.88.88,0,0,1,175,69.6Z"/><path class="cls-7" d="M186.92,73.58a56.77,56.77,0,0,0-5.46-3.79,37,37,0,0,0-5.79-.81s1,1.88.54,2.87-1.75,3.44-1.75,3.44a49.9,49.9,0,0,0,5.21,2,19.66,19.66,0,0,0,4.47.8Z"/><path class="cls-7" d="M147.33,58.44s-1.89-4.72-5.16-4.62-6,3.06-6.79,3.57c-3.27,2.1-8,.64-10.17,1.55s-1.86,2.35-1,2.29c4.86-.34,7.93,1,10.05.53s10.31.23,10.31.23Z"/><path class="cls-7" d="M145.52,55.55s-2.73-2.43-4.87-2.62-4.08,1.87-5.89,2-1.1,1-.9,1.22,2.43.11,3.44.2S142.56,58.85,145.52,55.55Z"/><path class="cls-7" d="M72.61,82.15c5.55,3.3,11.38-8.76,13.93-14.79S94.73,43,94.73,43l-6.35-3.15A177.06,177.06,0,0,0,69.47,69.72C68.66,71.39,67,78.79,72.61,82.15Z"/><path class="cls-11" d="M13.41,252.79s4.05,7.47,3.4,9.08c-.36.91-3.38,3.86-7.57,3.22-3.19-.48-7.7-4.45-8.48-4.7-1.82-.59.33-10.55.33-10.55Z"/><path class="cls-7" d="M41.28,46.23c-4.72,3.61-3.13,8.59.72,13S70.19,82.07,72.08,82s8-6.12,7.07-8.7S60,51.91,56.17,48.83,46.81,42,41.28,46.23Z"/><path class="cls-19" d="M46.24,44.38c2.26-.15,7.75.32,14.22,6.78,4.31,4.32,12.33,12.78,12.33,12.78a20.93,20.93,0,0,1-5.46,8,19.26,19.26,0,0,1-9,4.85s-17.2-17.26-18.56-22C39.33,53.32,40,44.79,46.24,44.38Z"/><path class="cls-7" d="M30.13,21.58s-.79,17.11-1.78,17.94C25.24,42.1,14,44.25,11.88,48.74c-2.56,5.44,11.37,29.92,13.18,38s-2,20.59-3.25,28.52,23.67,17.57,24.58,17.57,9-7.48,10.49-10.07S57,99.86,57,94.68s1.25-23.35,1.49-24.53a35.86,35.86,0,0,0-.76-15.87c-.3-1.68-.2-4.49-1-5.56-1.67-2.14-11-5-11.14-6s-1.38-15.93-1.38-15.93Z"/><path class="cls-20" d="M28.35,39.52l15,9,2.16-5.86s9.85,3.11,11.13,5.24,1.88,7.57,2.3,9.3.65,9.65,0,16.52c-.4,4-.31,9.35-.94,16.2-.54,5.87.07,20.48.07,20.48s-5.6.22-14.28-.23c-10-.51-20.2-2.07-20.65-2.44-1.93-1.59.78-17.17.43-18.89S10.91,57.28,10.72,53.37a8,8,0,0,1,4.78-7.95C18.46,44,28.35,39.52,28.35,39.52Z"/><path class="cls-19" d="M17,44.71s-9.81,5.41-.11,12.94c4.19,3.25,24.24,8.32,28,9.47,13.48,4.15-7.38,34-9,36.28a10.28,10.28,0,0,0-1.59,5.34l-13-1.49c-4,.79,2.15-18.53.63-22.71s-11.26-28-11.25-31.17A8.89,8.89,0,0,1,17,44.71Z"/><polygon class="cls-4" points="44.68 33.18 29.49 27.69 29.11 36.68 33.79 39.54 44.68 33.18"/><path class="cls-7" d="M48,4.29C44,.93,32.63-1.84,27.41,5.77S24.89,20.59,28,25c2.47,3.44,4.8,5.3,9.35,7.13.93.38,9.26,1.48,10.89.86,1.12-.43,1.66-8.7,2-8.68a1.51,1.51,0,0,0,1.26-1.18c0-1-1.26-6.86-1-7.49S52.48,8.13,48,4.29Z"/><path class="cls-6" d="M50.39,7.87S44,4.56,36.39,12c-1.63,1.6,1.81,8,1.41,8.62s-6.41-4.55-6.16-3.81c2.57,7.48.26,11.75-.43,11.82-2.09.22-9-10.21-6.11-19S37.19-.32,39.43.06,48.37.66,50.39,7.87Z"/><path class="cls-7" d="M35.4,18.36c.83,2.39,1.3,5.62,0,6.06s-3-1.14-3.84-3.52-.46-4.67.83-5.1S34.56,16,35.4,18.36Z"/><rect class="cls-11" x="36.14" y="253.32" width="9.72" height="1.81"/><path class="cls-11" d="M36.53,240.54a16.88,16.88,0,0,0-2.27,6.83c-.15,1.91,1,5.95,2.25,5.95a93.83,93.83,0,0,1,11.87.66c3.79.51,5.2,2.69,14.9,2.67,2.83,0,7.82-.18,7.82-1.34,0-5-9.3-3.23-12.25-5.95-7.47-6.89-12.44-8.55-12.44-8.55S36.79,240.17,36.53,240.54Z"/><path class="cls-9" d="M41.14,108.07S28.19,121,27.6,126.66s4.86,23.71,6.79,37.91S37.51,181.65,37,185s-4.29,16.93-4.16,26c.15,10.55-.4,32.17-.4,32.17s2.82,2.21,10.08,2.18c4.68,0,8.72-3.34,8.72-3.34s2.92-53.05,3.51-58.62c.38-3.61,3.33-28.49,4.24-48.78.29-6.53-1.21-25.19-1.21-27.89Z"/><polygon class="cls-15" points="42.7 44.97 43.36 48.52 35.45 43.83 42.7 44.97"/><polygon class="cls-15" points="43.36 48.52 44.61 44.11 46.52 45.6 43.36 48.52"/><path class="cls-8" d="M21,107.17s-5.18,12.69-7.23,21.17S9.23,180.72,8.5,184.85,5.18,201.6,3.19,214.07,0,251.59,0,251.59l16,2.5L27,193.3c1.5-8.25,17.33-66.8,17.33-66.8l2-18.85Z"/><path class="cls-9" d="M21.47,143.05c-1.34,5.62-5.24,43.8-5.56,46s-10.2,60.7-10.65,63.4L0,251.59s1.19-25.05,3.19-37.52S7.76,189,8.5,184.85s3.18-48,5.24-56.51S21,107.17,21,107.17l14,.43S22.81,137.43,21.47,143.05Z"/><path class="cls-21" d="M20.62,107.17s24.58.41,26.05.45,11.14-.91,11.14-.91l.19,3.88s-9.37.78-13.86.78-24.41-1-24.41-1Z"/><rect class="cls-22" x="43.94" y="107.38" width="6.25" height="4.49" rx="2.09"/><polygon class="cls-17" points="26.28 40.44 29.11 36.68 42.7 44.97 40.53 49.81 26.28 40.44"/><polygon class="cls-17" points="44.61 44.11 47.84 47.82 48.35 43.86 45.65 41.27 44.61 44.11"/><path class="cls-7" d="M16,47.6c-5.83,1.13-6.69,6.16-5.28,11.66S26.9,95.65,28.6,96.4s9.84-2,10.23-4.57S30,60.56,28,56.25,22.79,46.27,16,47.6Z"/><path class="cls-20" d="M21.09,47.65c2.08.88,6.6,3.71,7.67,7.88,1.52,5.91,6.61,21.12,6.61,21.12a20.82,20.82,0,0,1-8.46,4.69,19.14,19.14,0,0,1-10.24.29S9.52,58.56,10,53.61C10.3,49.63,15.3,45.21,21.09,47.65Z"/><path class="cls-7" d="M28,87.5c-5.24,3.78,3.5,13.93,8,18.68S55,123.4,55,123.4l5.42-4.57A177.1,177.1,0,0,0,40.6,89.59C39.39,88.18,33.29,83.66,28,87.5Z"/><path class="cls-7" d="M86.79,38.09S88,31.89,89,30.8s5.51-10.2,6.21-9.08c.81,1.3-2.56,8.87-2.32,9s4.42,1.8,5.69,3.09-4,9.45-4,9.45l-6,1.09Z"/><path class="cls-23" d="M77.11,116.77l1.34-.88a.66.66,0,0,1,.91.2h0a.65.65,0,0,1-.19.91l-1.34.88a.66.66,0,0,1-.91-.2h0A.66.66,0,0,1,77.11,116.77Z"/><path class="cls-24" d="M57.74,130.89h0c-.36-.52,1.76-2.59,2.28-2.95l16.54-11.29a1.15,1.15,0,0,1,1.6.3h0a1.16,1.16,0,0,1-.3,1.61L61.33,129.85C60.8,130.21,58.1,131.42,57.74,130.89Z"/><rect class="cls-23" x="74.53" y="117.95" width="2.5" height="1.17" transform="translate(127.7 -12.22) rotate(54.25)"/><path class="cls-25" d="M70.75,122.22h0a.38.38,0,0,1,.09-.51l5.46-3.84a.36.36,0,0,1,.51.09h0a.37.37,0,0,1-.09.52l-5.45,3.83A.37.37,0,0,1,70.75,122.22Z"/><path class="cls-7" d="M62.09,133.85h0a1.26,1.26,0,0,0,.46-1.71l-2.67-4.65a1.27,1.27,0,0,0-1.72-.47h0a1.25,1.25,0,0,0-.46,1.71l2.66,4.65A1.26,1.26,0,0,0,62.09,133.85Z"/><path class="cls-7" d="M64.24,132.88h0a1.25,1.25,0,0,0,.46-1.7L62,126.51a1.26,1.26,0,0,0-1.72-.46h0a1.25,1.25,0,0,0-.46,1.71l2.66,4.66A1.27,1.27,0,0,0,64.24,132.88Z"/><path class="cls-7" d="M66.27,131.8h0a1.25,1.25,0,0,0,.46-1.71l-2.66-4.65a1.26,1.26,0,0,0-1.72-.46h0a1.25,1.25,0,0,0-.46,1.71l2.66,4.65A1.26,1.26,0,0,0,66.27,131.8Z"/><path class="cls-7" d="M68.13,130.58h0a1.26,1.26,0,0,0,.47-1.71l-2.67-4.65a1.26,1.26,0,0,0-1.72-.47h0a1.25,1.25,0,0,0-.46,1.7l2.66,4.66A1.26,1.26,0,0,0,68.13,130.58Z"/><path class="cls-7" d="M57.32,115s7.16,5.25,8.2,6.63,3.23,7.79,3.23,7.79-3-.65-4.21.3-4.16,3.7-4.16,3.7-4.14-4.18-5.35-6.63a27.21,27.21,0,0,1-1.85-5.15Z"/><rect class="cls-26" x="-5.09" y="191.84" width="126.1" height="8.28" transform="translate(-138.02 253.94) rotate(-90)"/><rect class="cls-26" x="221.24" y="191.84" width="126.1" height="8.28" transform="translate(88.31 480.27) rotate(-90)"/><rect class="cls-26" x="54.98" y="134.91" width="232.07" height="17.93"/><polygon class="cls-27" points="288.28 147.05 53.82 148.84 53.82 142.88 288.28 142.95 288.28 147.05"/><rect class="cls-10" x="43.84" y="132.59" width="255.02" height="10.42"/><path class="cls-7" d="M276.36,49.93c3.53-1.83,9.11.73,11.91,9.31s9.25,31.22,10.13,35,4.33,11.53-2.85,14.88S285.28,104.85,282.7,99C271.24,73.05,266.89,54.84,276.36,49.93Z"/><path class="cls-7" d="M208.3,95.89C207,92.36,204,90,193.76,92.53s-31.3,10.29-31.3,10.29l.72,5.7s21.57.76,27.2-.36S211.8,105.15,208.3,95.89Z"/><path class="cls-7" d="M298.75,100.47c-1.34-3.54-4.32-5.88-14.53-3.37s-31.3,10.29-31.3,10.29l.71,5.7s21.58.76,27.2-.36S302.26,109.72,298.75,100.47Z"/><path class="cls-11" d="M270.61,264s5.63-2.12,8.49-2c2.06.06,4.63,1.75,4.76,3.51.05.69-.75,1.51-1.45,2.35s-9.36,6.85-11.23,7.06c-3.22.36-6.65.34-8.39-.29s-1.82-6.87-1.82-6.87Z"/><path class="cls-7" d="M234.12,90.16c-3.91-12-14-32.56-8.11-36.14,7.71-4.67,29.9-7.54,29.9-7.54v.38s19,2.44,26.67,7.1c5.92,3.57-.95,24.56-4.85,36.56-.93,2.88-.82,15.79-.46,27.23.09,2.83,2.39,15.81,2,21.18-.11,1.6-18.23,11.52-23.31,11.78v-.38c-5.08-.25-23.21-10.16-23.33-11.76-.39-5.37,1.9-18.35,2-21.18C235,106,235.06,93,234.12,90.16Z"/><path class="cls-7" d="M236.38,52.84c-2.69-2.92-8.81-2.4-14.36,4.72S202.72,83.77,200.61,87s-8,9.37-2.38,15,11.11-.53,15.52-5.15C233.34,76.33,243.62,60.68,236.38,52.84Z"/><path class="cls-4" d="M246.64,42.93c.5-2.29,1.77-13.59,1.77-13.59h7.49v.38h7.49s1.27,11.3,1.78,13.59S271.85,49,271.85,49H255.91v-.39H240S246.13,45.21,246.64,42.93Z"/><path class="cls-7" d="M267.88,126.33c9.14,0,12.7,6.34,12.46,25.89S277.19,193,275.92,196s-14.22,3.12-15.49,1.35S256,155,256,148.68,257.92,126.36,267.88,126.33Z"/><rect class="cls-7" x="260.37" y="190.32" width="15.62" height="21.33" rx="6.6" transform="translate(541.21 395.32) rotate(178.59)"/><path class="cls-7" d="M268.55,199.7c2.8,0,9.65.92,9.28,19.15s-8.1,43.2-8.1,43.2h-6.61s-3.23-33.74-3.25-40.22C259.82,207.1,259.73,199.71,268.55,199.7Z"/><path class="cls-7" d="M243.77,126.47c-9.09-1-13.3,5-15.11,24.44s-1.14,40.86-.2,44,13.82,4.59,15.27,3,8.88-41.64,9.55-48S253.66,127.55,243.77,126.47Z"/><rect class="cls-7" x="227.83" y="190.01" width="15.62" height="21.33" rx="6.6" transform="translate(27.96 -28.81) rotate(7.44)"/><path class="cls-7" d="M235.4,199.37c-2.78-.3-9.69-.1-11.24,18.07s3.53,43.8,3.53,43.8l6.57.7s6.76-33.22,7.46-39.65C243.3,207.64,244.17,200.3,235.4,199.37Z"/><path class="cls-9" d="M277.8,122.41s3.29,16.1,3.8,24.86-3.75,47-3.76,51.27.27,17.16,0,29.86-3.53,37.69-3.53,37.69l-16.25-.4S258,212,258,203.58,256,150.71,256,150.71V123.1Z"/><path class="cls-9" d="M234.32,121.91s-5,15.67-6.39,24.33-1.2,47.19-1.63,51.38-2.08,17-3.15,29.69-.4,37.86-.4,37.86l16.2,1.31s5.64-53.38,6.53-61.77S256,152.1,256,152.1l-.07-29Z"/><path class="cls-11" d="M273.15,266.06a60.93,60.93,0,0,1,.05,7.53c-.17,1-2.66,2-6.91,2.29a16.53,16.53,0,0,1-7-1.26c-1.88-.84.6-8.88.6-8.88Z"/><path class="cls-11" d="M228.08,262.65s-5.62-2.13-8.48-2c-2.06.06-4.63,1.74-4.77,3.51-.05.68.75,1.51,1.45,2.35s9.35,6.87,11.21,7.08c3.23.37,6.65.36,8.4-.27s1.83-6.87,1.83-6.87Z"/><path class="cls-28" d="M236.19,154.74c-.92,5.74-2,44.31-2.15,46.49s-5.7,61.62-6,64.37l-5.33-.43s-.67-25.2.4-37.86,2.72-25.5,3.15-29.69.2-42.72,1.63-51.38,6.39-24.33,6.39-24.33L256,123.1c.18,31.26-24.26,22.92-25,24.68S236.54,152.6,236.19,154.74Z"/><path class="cls-28" d="M270.22,156.08c-1.38,7.25-3.38,42.7-3.12,43.62s0,66,0,66l-.29.18-8.76-.22S258,212,258,203.58s-1.53-41.14-1.53-41.14,2.44-6.4,6.35-6C266.59,156.74,270.5,154.63,270.22,156.08Z"/><path class="cls-4" d="M242.15,21.5c.07,1-.48,2.08-.37,3.45.05.53.72,1.24.78,1.8.48,4.65,1.49,9.79,4.13,9.7,4.75-.15,7.61.32,10.82.32,4.82,0,11-5.48,12.14-15.24,1.09-9.42-8.37-17-17.21-16.84-8.52.12-10.71,6.57-10.38,15.25Q242.09,20.71,242.15,21.5Z"/><path class="cls-6" d="M257,1.84c-7.06-1.26-18,5-13.84,8.84,1.24,1.15,1.5,12.06,1.5,12.06s1.5-.79,2.05-.16,1,4.4,1.64,6.1,4.83,8.2,6,8.2,8.78.29,9.76-.76a45,45,0,0,0,5.28-10.35C270.45,22.49,275.12,5.06,257,1.84Z"/><path class="cls-4" d="M245.63,18.58c0-.38,2-1.6,3,1,.48,1.3-1.22,7-1.53,7C246.27,26.53,245.45,20.51,245.63,18.58Z"/><path class="cls-12" d="M224.1,54.06c1-1.68,6.41-3.06,11.4-4.61a53.67,53.67,0,0,0,7.93-3.22l24.8.08a37,37,0,0,0,9,2.45c5.59.67,7.06,3.17,7.91,4.92s1.23,18-6.14,39.26c-1,2.91,1.6,23.3-.93,29.4l-21.88,2-21.89-1.95c-2-7,0-26.87-1-29.78S222.42,56.86,224.1,54.06Z"/><polygon class="cls-11" points="240.84 47.56 271.1 47.59 266.86 42.6 245.08 42.58 240.84 47.56"/><path class="cls-12" d="M225.49,52.92s-3.65.46-8.6,9.35C213.42,68.5,200,86.84,200,86.84a23.14,23.14,0,0,0,8.37,8.62c4.93,2.81,6.49,2.2,6.49,2.2l17.9-19.39Z"/><path class="cls-12" d="M283.23,51.17s5.55,3.31,8.27,14.25c1.72,6.92,7.52,28.84,7.52,28.84a23.23,23.23,0,0,1-10.8,5.26c-5.6,1-6.86-.13-6.86-.13L271.11,75.07Z"/><path class="cls-7" d="M166.43,102.53s-1.69-2.13-2-2.39-3.47-2.08-4.08-3-.67-1.72-.87-1.86-2.39,0-1.73,1.9,2.23,3.31,2.15,3.93-4.24,1-5.1.69-6.24-2.94-6.51-3-1.09-.25-1.3,0a3.35,3.35,0,0,0,.36,2c.23.28-.51.55-.45.89s.43,1.51.43,1.51a5.58,5.58,0,0,0,.41,1.92,23.71,23.71,0,0,0,2.3,2.63c.27.14,5,2.71,6.28,2.8s8.49,0,10.7-2.17C168,107.29,166.43,102.53,166.43,102.53Z"/><path class="cls-11" d="M278,126.83l-44.87-.07a1.06,1.06,0,0,1-1.06-1.07l.93-3.16a1.06,1.06,0,0,1,1.06-1.07H278a1.07,1.07,0,0,1,1.07,1.07v3.23A1.07,1.07,0,0,1,278,126.83Z"/><path class="cls-15" d="M154.9,198.55c2.63,2.91,9.88.27,15.32-3.36,6.16-4.09,13.91-15.92,13.91-15.92l-11.41-10.43s-3.24,6.59-8.78,10-6.64-1.43-6.64-1.43Z"/><path class="cls-13" d="M154.9,198.55s.59-3.25,1.7-3.85a3,3,0,0,1,3.83.61l-3.13-17.89Z"/><rect class="cls-29" x="171.35" y="118.12" width="11.73" height="14.55"/><path class="cls-29" d="M182.61,130.89l-.23-1.34c.19,0,4.52-.81,4.52-4.53s-4.11-3.72-4.28-3.72v-1.36c1.94,0,5.62,1.1,5.62,5.08S184.56,130.56,182.61,130.89Z"/><rect class="cls-29" x="79.56" y="118.14" width="11.73" height="14.55" transform="translate(170.86 250.83) rotate(180)"/><path class="cls-29" d="M80,130.9l.23-1.33c-.19,0-4.51-.81-4.51-4.54s4.1-3.72,4.27-3.72V120c-1.94,0-5.62,1.1-5.62,5.07S78.09,130.58,80,130.9Z"/></g></g></g></svg>