<svg xmlns="http://www.w3.org/2000/svg" viewBox="0 0 35.75 35.75"><defs><style>.cls-1{opacity:0.21;}.cls-2{fill:#ffd7d7;}.cls-3{fill:none;stroke:#fd2d01;stroke-linecap:round;stroke-linejoin:round;stroke-width:2.75px;}</style></defs><g id="Calque_2" data-name="Calque 2"><g id="Calque_1-2" data-name="Calque 1"><g id="Calque_2-2" data-name="Calque 2" class="cls-1"><g id="Calque_1-2-2" data-name="Calque 1-2"><g id="_9269873b-566f-aa23-fe77-697bbc54db67" data-name=" 9269873b-566f-aa23-fe77-697bbc54db67"><path class="cls-2" d="M17.58,35.67a17.06,17.06,0,0,0,17.1-17v-.1a17.07,17.07,0,0,0-17-17.1h-.1a17.07,17.07,0,0,0-17.1,17v.1a17.07,17.07,0,0,0,17,17.1Zm1-2.89h-1a6.6,6.6,0,0,1-1.4-.1,22.59,22.59,0,0,1-3.2-7.3h7.19A4.84,4.84,0,0,0,21.38,27,23.13,23.13,0,0,1,18.58,32.78Zm3.9-.81a25.09,25.09,0,0,0,1.9-4.4,3.48,3.48,0,0,0,2.6-2.1h3.19A14.82,14.82,0,0,1,22.48,32Zm9.4-13.39a18,18,0,0,1-.5,3.9h-4.5a7.6,7.6,0,0,0-1.11-1.4,22.17,22.17,0,0,0,.11-2.7,24.42,24.42,0,0,0-.3-3.71h5.59A10.79,10.79,0,0,1,31.88,18.58Zm-1.8-6.81h-5a24.69,24.69,0,0,0-2.4-6.39A13.68,13.68,0,0,1,30.08,11.77ZM23,18.38a14.84,14.84,0,0,1-.1,2.1,3.38,3.38,0,0,0-2.5,2h-7.9a22.1,22.1,0,0,1-.3-3.71,16.8,16.8,0,0,1,.1-2.29,3.68,3.68,0,0,0,2.4-1.8h8A23,23,0,0,1,23,18.38Zm-6.4-14h2.3a22.5,22.5,0,0,1,3.2,7.3H15a4.63,4.63,0,0,0-1.3-1.8A28.9,28.9,0,0,1,16.58,4.38Zm-3.91.89a29.56,29.56,0,0,0-1.8,4.11,3.65,3.65,0,0,0-2.7,2.39h-3A14.16,14.16,0,0,1,12.67,5.27ZM3.38,18.58a12.88,12.88,0,0,1,.6-3.9h4.5a4,4,0,0,0,1,1.2c-.1,1-.2,2-.2,2.9,0,1.2.1,2.5.2,3.7H4A12.47,12.47,0,0,1,3.38,18.58Zm6.69,6.8a24.79,24.79,0,0,0,2.41,6.4,14.28,14.28,0,0,1-7.3-6.4Z"/></g></g></g><polyline class="cls-3" points="5.08 17.88 1.38 17.88 17.88 1.38 34.38 17.88 30.68 17.88"/><path class="cls-3" d="M5.07,17.88V30.67a3.71,3.71,0,0,0,3.7,3.71h18.3a3.69,3.69,0,0,0,3.7-3.71V17.88"/><path class="cls-3" d="M12.38,34.38v-11a3.7,3.7,0,0,1,3.7-3.71h3.7a3.69,3.69,0,0,1,3.7,3.71v11"/></g></g></svg>